<svg width="281" height="347" viewBox="0 0 281 347" fill="none" xmlns="http://www.w3.org/2000/svg">
<path d="M268.52 226.913L268.804 220.537C271.762 218.957 275.061 218.123 278.415 218.106C273.799 221.877 274.375 229.147 271.246 234.218C270.258 235.793 268.928 237.125 267.354 238.115C265.781 239.106 264.005 239.731 262.157 239.942L258.295 242.306C257.764 239.353 257.881 236.32 258.637 233.417C259.393 230.513 260.769 227.808 262.672 225.487C263.752 224.196 264.991 223.046 266.359 222.064C267.284 224.502 268.52 226.913 268.52 226.913Z" fill="#F2F2F2"/>
<path d="M61.272 219.926L51.9503 217.106C50.7278 212.142 50.7361 206.956 51.9747 201.996C55.8134 210.234 66.7817 212.12 73.103 218.652C75.059 220.704 76.5277 223.17 77.4004 225.867C78.2731 228.564 78.5273 231.422 78.1442 234.23L80.1846 240.825C75.618 240.496 71.1772 239.181 67.1682 236.971C63.1591 234.762 59.677 231.71 56.9618 228.026C55.4591 225.944 54.2247 223.682 53.2878 221.292C57.2413 220.843 61.272 219.926 61.272 219.926Z" fill="#F2F2F2"/>
<path d="M261.266 241.263C261.265 241.456 261.188 241.641 261.052 241.778C260.985 241.845 260.905 241.898 260.817 241.934C260.729 241.97 260.635 241.989 260.54 241.989H257.622C257.527 241.989 257.432 241.97 257.344 241.934C257.256 241.898 257.175 241.844 257.108 241.777C257.04 241.709 256.987 241.629 256.951 241.541C256.914 241.453 256.896 241.358 256.896 241.263V153.066C256.896 151.122 256.243 149.544 255.44 149.54H36.7441C35.9382 149.544 35.2885 151.122 35.2849 153.066V240.723C35.2843 240.903 35.2167 241.076 35.0953 241.21C34.974 241.343 34.8074 241.427 34.6278 241.444C34.0398 241.502 33.4518 241.553 32.8674 241.6C32.8528 241.6 32.8383 241.604 32.8238 241.604C32.5044 241.633 32.1849 241.655 31.8655 241.68H31.8619C31.6949 241.379 31.5352 241.071 31.3718 240.762C31.3195 240.658 31.2922 240.542 31.292 240.425V148.492C31.292 147.955 31.3138 147.415 31.3501 146.881C31.4019 146.149 31.4927 145.42 31.6223 144.698C32.2358 141.328 33.6224 139.046 35.1977 139.039H256.983C257.213 139.04 257.44 139.088 257.651 139.18C257.961 139.317 258.24 139.513 258.475 139.757C258.793 140.088 259.066 140.46 259.284 140.863C260.061 142.231 260.617 144.27 260.813 146.642C260.813 146.664 260.816 146.685 260.816 146.707C260.867 147.295 260.892 147.893 260.889 148.492L260.94 156.265L260.972 160.901L261.07 175.447L261.107 180.613L261.266 241.263Z" fill="#E6E6E6"/>
<path d="M280.568 242.888L180.474 243C180.36 243 180.25 242.954 180.169 242.873C180.088 242.792 180.043 242.682 180.043 242.568C180.043 242.454 180.088 242.344 180.169 242.263C180.25 242.182 180.36 242.136 180.474 242.136L280.568 242.025C280.682 242.025 280.792 242.071 280.873 242.152C280.953 242.233 280.999 242.342 280.999 242.457C280.999 242.571 280.953 242.681 280.873 242.762C280.792 242.842 280.682 242.888 280.568 242.888Z" fill="#CACACA"/>
<path d="M156.327 113.27H138.599C138.349 113.271 138.108 113.37 137.931 113.548C137.754 113.725 137.655 113.966 137.655 114.216V142.202H157.274V114.216C157.274 114.092 157.25 113.969 157.202 113.854C157.154 113.739 157.085 113.635 156.997 113.547C156.909 113.459 156.804 113.39 156.69 113.342C156.575 113.295 156.451 113.27 156.327 113.27ZM147.523 129.171C146.969 129.169 146.438 128.947 146.046 128.556C145.654 128.164 145.432 127.633 145.43 127.079V123.851C145.43 123.297 145.65 122.764 146.043 122.372C146.435 121.98 146.968 121.759 147.523 121.759C148.078 121.759 148.611 121.98 149.003 122.372C149.396 122.764 149.616 123.297 149.616 123.851V127.079C149.614 127.633 149.392 128.164 149 128.556C148.608 128.947 148.077 129.169 147.523 129.171V129.171Z" fill="#2F2E41"/>
<path d="M185.683 69.5956H109.904C109.253 69.5966 108.629 69.8555 108.168 70.3156C107.708 70.7756 107.449 71.3993 107.448 72.0499V123.151C107.448 123.802 107.707 124.426 108.168 124.886C108.628 125.346 109.253 125.605 109.904 125.605H185.683C186.334 125.605 186.958 125.346 187.419 124.886C187.879 124.426 188.138 123.802 188.139 123.151V72.0499C188.138 71.3993 187.878 70.7756 187.418 70.3156C186.958 69.8555 186.334 69.5966 185.683 69.5956V69.5956Z" fill="#3F3D56"/>
<path d="M185.049 71.3679H110.536C110.187 71.3686 109.853 71.5075 109.607 71.7541C109.361 72.0007 109.222 72.3348 109.222 72.6832V122.518C109.223 122.866 109.361 123.199 109.608 123.445C109.854 123.691 110.187 123.83 110.536 123.83H185.049C185.397 123.83 185.731 123.691 185.977 123.445C186.223 123.199 186.362 122.866 186.362 122.518V72.6832C186.362 72.3348 186.224 72.0007 185.978 71.7541C185.731 71.5075 185.397 71.3686 185.049 71.3679V71.3679Z" fill="white"/>
<path d="M137.594 141.307V144.007C137.595 144.147 137.65 144.281 137.749 144.38C137.848 144.479 137.982 144.534 138.122 144.535H156.807C156.947 144.534 157.081 144.478 157.179 144.379C157.278 144.28 157.334 144.147 157.335 144.007V141.307H137.594Z" fill="#3F3D56"/>
<path d="M170.536 145.474H126.205C126.084 145.474 125.964 145.447 125.854 145.395C125.745 145.343 125.648 145.267 125.572 145.173C125.495 145.078 125.441 144.968 125.412 144.851C125.384 144.733 125.382 144.61 125.407 144.491L126.095 141.227C126.134 141.044 126.234 140.88 126.38 140.762C126.525 140.645 126.706 140.58 126.893 140.579H169.848C170.035 140.58 170.216 140.645 170.362 140.762C170.507 140.88 170.607 141.044 170.646 141.227L171.334 144.491C171.359 144.61 171.357 144.733 171.329 144.851C171.3 144.968 171.246 145.078 171.169 145.173C171.093 145.267 170.996 145.343 170.887 145.395C170.777 145.447 170.658 145.474 170.536 145.474V145.474Z" fill="#2F2E41"/>
<path d="M128.395 141.167H127.384C127.287 141.167 127.207 141.247 127.207 141.344V141.809C127.207 141.907 127.287 141.986 127.384 141.986H128.395C128.493 141.986 128.573 141.907 128.573 141.809V141.344C128.573 141.247 128.493 141.167 128.395 141.167Z" fill="#3F3D56"/>
<path d="M131.126 141.167H130.115C130.017 141.167 129.938 141.247 129.938 141.344V141.809C129.938 141.907 130.017 141.986 130.115 141.986H131.126C131.224 141.986 131.303 141.907 131.303 141.809V141.344C131.303 141.247 131.224 141.167 131.126 141.167Z" fill="#3F3D56"/>
<path d="M133.857 141.167H132.846C132.748 141.167 132.669 141.247 132.669 141.344V141.809C132.669 141.907 132.748 141.986 132.846 141.986H133.857C133.955 141.986 134.034 141.907 134.034 141.809V141.344C134.034 141.247 133.955 141.167 133.857 141.167Z" fill="#3F3D56"/>
<path d="M136.588 141.167H135.577C135.479 141.167 135.4 141.247 135.4 141.344V141.809C135.4 141.907 135.479 141.986 135.577 141.986H136.588C136.686 141.986 136.765 141.907 136.765 141.809V141.344C136.765 141.247 136.686 141.167 136.588 141.167Z" fill="#3F3D56"/>
<path d="M139.319 141.167H138.308C138.21 141.167 138.13 141.247 138.13 141.344V141.809C138.13 141.907 138.21 141.986 138.308 141.986H139.319C139.416 141.986 139.496 141.907 139.496 141.809V141.344C139.496 141.247 139.416 141.167 139.319 141.167Z" fill="#3F3D56"/>
<path d="M142.049 141.167H141.038C140.94 141.167 140.861 141.247 140.861 141.344V141.809C140.861 141.907 140.94 141.986 141.038 141.986H142.049C142.147 141.986 142.226 141.907 142.226 141.809V141.344C142.226 141.247 142.147 141.167 142.049 141.167Z" fill="#3F3D56"/>
<path d="M144.78 141.167H143.769C143.671 141.167 143.592 141.247 143.592 141.344V141.809C143.592 141.907 143.671 141.986 143.769 141.986H144.78C144.878 141.986 144.957 141.907 144.957 141.809V141.344C144.957 141.247 144.878 141.167 144.78 141.167Z" fill="#3F3D56"/>
<path d="M147.511 141.167H146.5C146.402 141.167 146.323 141.247 146.323 141.344V141.809C146.323 141.907 146.402 141.986 146.5 141.986H147.511C147.609 141.986 147.688 141.907 147.688 141.809V141.344C147.688 141.247 147.609 141.167 147.511 141.167Z" fill="#3F3D56"/>
<path d="M150.241 141.167H149.23C149.133 141.167 149.053 141.247 149.053 141.344V141.809C149.053 141.907 149.133 141.986 149.23 141.986H150.241C150.339 141.986 150.419 141.907 150.419 141.809V141.344C150.419 141.247 150.339 141.167 150.241 141.167Z" fill="#3F3D56"/>
<path d="M152.972 141.167H151.961C151.863 141.167 151.784 141.247 151.784 141.344V141.809C151.784 141.907 151.863 141.986 151.961 141.986H152.972C153.07 141.986 153.149 141.907 153.149 141.809V141.344C153.149 141.247 153.07 141.167 152.972 141.167Z" fill="#3F3D56"/>
<path d="M155.703 141.167H154.692C154.594 141.167 154.515 141.247 154.515 141.344V141.809C154.515 141.907 154.594 141.986 154.692 141.986H155.703C155.801 141.986 155.88 141.907 155.88 141.809V141.344C155.88 141.247 155.801 141.167 155.703 141.167Z" fill="#3F3D56"/>
<path d="M158.434 141.167H157.423C157.325 141.167 157.245 141.247 157.245 141.344V141.809C157.245 141.907 157.325 141.986 157.423 141.986H158.434C158.531 141.986 158.611 141.907 158.611 141.809V141.344C158.611 141.247 158.531 141.167 158.434 141.167Z" fill="#3F3D56"/>
<path d="M161.164 141.167H160.153C160.055 141.167 159.976 141.247 159.976 141.344V141.809C159.976 141.907 160.055 141.986 160.153 141.986H161.164C161.262 141.986 161.341 141.907 161.341 141.809V141.344C161.341 141.247 161.262 141.167 161.164 141.167Z" fill="#3F3D56"/>
<path d="M163.895 141.167H162.884C162.786 141.167 162.707 141.247 162.707 141.344V141.809C162.707 141.907 162.786 141.986 162.884 141.986H163.895C163.993 141.986 164.072 141.907 164.072 141.809V141.344C164.072 141.247 163.993 141.167 163.895 141.167Z" fill="#3F3D56"/>
<path d="M166.626 141.167H165.615C165.517 141.167 165.438 141.247 165.438 141.344V141.809C165.438 141.907 165.517 141.986 165.615 141.986H166.626C166.724 141.986 166.803 141.907 166.803 141.809V141.344C166.803 141.247 166.724 141.167 166.626 141.167Z" fill="#3F3D56"/>
<path d="M169.356 141.167H168.345C168.248 141.167 168.168 141.247 168.168 141.344V141.809C168.168 141.907 168.248 141.986 168.345 141.986H169.356C169.454 141.986 169.534 141.907 169.534 141.809V141.344C169.534 141.247 169.454 141.167 169.356 141.167Z" fill="#3F3D56"/>
<path d="M128.363 142.532H127.352C127.254 142.532 127.175 142.611 127.175 142.709V143.173C127.175 143.271 127.254 143.35 127.352 143.35H128.363C128.461 143.35 128.54 143.271 128.54 143.173V142.709C128.54 142.611 128.461 142.532 128.363 142.532Z" fill="#3F3D56"/>
<path d="M131.094 142.532H130.083C129.985 142.532 129.906 142.611 129.906 142.709V143.173C129.906 143.271 129.985 143.35 130.083 143.35H131.094C131.192 143.35 131.271 143.271 131.271 143.173V142.709C131.271 142.611 131.192 142.532 131.094 142.532Z" fill="#3F3D56"/>
<path d="M133.825 142.532H132.814C132.716 142.532 132.636 142.611 132.636 142.709V143.173C132.636 143.271 132.716 143.35 132.814 143.35H133.825C133.923 143.35 134.002 143.271 134.002 143.173V142.709C134.002 142.611 133.923 142.532 133.825 142.532Z" fill="#3F3D56"/>
<path d="M136.555 142.532H135.544C135.447 142.532 135.367 142.611 135.367 142.709V143.173C135.367 143.271 135.447 143.35 135.544 143.35H136.555C136.653 143.35 136.733 143.271 136.733 143.173V142.709C136.733 142.611 136.653 142.532 136.555 142.532Z" fill="#3F3D56"/>
<path d="M139.286 142.532H138.275C138.177 142.532 138.098 142.611 138.098 142.709V143.173C138.098 143.271 138.177 143.35 138.275 143.35H139.286C139.384 143.35 139.463 143.271 139.463 143.173V142.709C139.463 142.611 139.384 142.532 139.286 142.532Z" fill="#3F3D56"/>
<path d="M142.017 142.532H141.006C140.908 142.532 140.829 142.611 140.829 142.709V143.173C140.829 143.271 140.908 143.35 141.006 143.35H142.017C142.115 143.35 142.194 143.271 142.194 143.173V142.709C142.194 142.611 142.115 142.532 142.017 142.532Z" fill="#3F3D56"/>
<path d="M144.748 142.532H143.737C143.639 142.532 143.56 142.611 143.56 142.709V143.173C143.56 143.271 143.639 143.35 143.737 143.35H144.748C144.846 143.35 144.925 143.271 144.925 143.173V142.709C144.925 142.611 144.846 142.532 144.748 142.532Z" fill="#3F3D56"/>
<path d="M147.478 142.532H146.467C146.369 142.532 146.29 142.611 146.29 142.709V143.173C146.29 143.271 146.369 143.35 146.467 143.35H147.478C147.576 143.35 147.655 143.271 147.655 143.173V142.709C147.655 142.611 147.576 142.532 147.478 142.532Z" fill="#3F3D56"/>
<path d="M150.209 142.532H149.198C149.1 142.532 149.021 142.611 149.021 142.709V143.173C149.021 143.271 149.1 143.35 149.198 143.35H150.209C150.307 143.35 150.386 143.271 150.386 143.173V142.709C150.386 142.611 150.307 142.532 150.209 142.532Z" fill="#3F3D56"/>
<path d="M152.94 142.532H151.929C151.831 142.532 151.752 142.611 151.752 142.709V143.173C151.752 143.271 151.831 143.35 151.929 143.35H152.94C153.038 143.35 153.117 143.271 153.117 143.173V142.709C153.117 142.611 153.038 142.532 152.94 142.532Z" fill="#3F3D56"/>
<path d="M155.671 142.532H154.66C154.562 142.532 154.482 142.611 154.482 142.709V143.173C154.482 143.271 154.562 143.35 154.66 143.35H155.671C155.768 143.35 155.848 143.271 155.848 143.173V142.709C155.848 142.611 155.768 142.532 155.671 142.532Z" fill="#3F3D56"/>
<path d="M158.401 142.532H157.39C157.292 142.532 157.213 142.611 157.213 142.709V143.173C157.213 143.271 157.292 143.35 157.39 143.35H158.401C158.499 143.35 158.578 143.271 158.578 143.173V142.709C158.578 142.611 158.499 142.532 158.401 142.532Z" fill="#3F3D56"/>
<path d="M161.132 142.532H160.121C160.023 142.532 159.944 142.611 159.944 142.709V143.173C159.944 143.271 160.023 143.35 160.121 143.35H161.132C161.23 143.35 161.309 143.271 161.309 143.173V142.709C161.309 142.611 161.23 142.532 161.132 142.532Z" fill="#3F3D56"/>
<path d="M163.863 142.532H162.852C162.754 142.532 162.675 142.611 162.675 142.709V143.173C162.675 143.271 162.754 143.35 162.852 143.35H163.863C163.961 143.35 164.04 143.271 164.04 143.173V142.709C164.04 142.611 163.961 142.532 163.863 142.532Z" fill="#3F3D56"/>
<path d="M166.593 142.532H165.582C165.485 142.532 165.405 142.611 165.405 142.709V143.173C165.405 143.271 165.485 143.35 165.582 143.35H166.593C166.691 143.35 166.771 143.271 166.771 143.173V142.709C166.771 142.611 166.691 142.532 166.593 142.532Z" fill="#3F3D56"/>
<path d="M169.324 142.532H168.313C168.215 142.532 168.136 142.611 168.136 142.709V143.173C168.136 143.271 168.215 143.35 168.313 143.35H169.324C169.422 143.35 169.501 143.271 169.501 143.173V142.709C169.501 142.611 169.422 142.532 169.324 142.532Z" fill="#3F3D56"/>
<path d="M151.028 144.169H140.46C140.362 144.169 140.282 144.248 140.282 144.346V144.811C140.282 144.909 140.362 144.988 140.46 144.988H151.028C151.126 144.988 151.205 144.909 151.205 144.811V144.346C151.205 144.248 151.126 144.169 151.028 144.169Z" fill="#3F3D56"/>
<path d="M181.304 78.2344H111.583C111.51 78.2329 111.441 78.203 111.39 78.1513C111.339 78.0995 111.311 78.0298 111.311 77.9573C111.311 77.8848 111.339 77.8152 111.39 77.7634C111.441 77.7116 111.51 77.6818 111.583 77.6803H181.304C181.377 77.6818 181.446 77.7116 181.497 77.7634C181.547 77.8152 181.576 77.8848 181.576 77.9573C181.576 78.0298 181.547 78.0995 181.497 78.1513C181.446 78.203 181.377 78.2329 181.304 78.2344V78.2344Z" fill="#CACACA"/>
<path d="M116.329 76.2656C117.226 76.2656 117.954 75.5224 117.954 74.6056C117.954 73.6888 117.226 72.9456 116.329 72.9456C115.431 72.9456 114.704 73.6888 114.704 74.6056C114.704 75.5224 115.431 76.2656 116.329 76.2656Z" fill="#3F3D56"/>
<path d="M121.942 76.2656C122.839 76.2656 123.567 75.5224 123.567 74.6056C123.567 73.6888 122.839 72.9456 121.942 72.9456C121.045 72.9456 120.317 73.6888 120.317 74.6056C120.317 75.5224 121.045 76.2656 121.942 76.2656Z" fill="#3F3D56"/>
<path d="M127.555 76.2656C128.453 76.2656 129.18 75.5224 129.18 74.6056C129.18 73.6888 128.453 72.9456 127.555 72.9456C126.658 72.9456 125.93 73.6888 125.93 74.6056C125.93 75.5224 126.658 76.2656 127.555 76.2656Z" fill="#3F3D56"/>
<path d="M177.925 73.3571H173.937C173.858 73.3586 173.783 73.3911 173.728 73.4475C173.672 73.5039 173.641 73.5798 173.641 73.6588C173.641 73.7378 173.672 73.8136 173.728 73.87C173.783 73.9264 173.858 73.9589 173.937 73.9605H177.925C178.004 73.9589 178.079 73.9264 178.134 73.87C178.19 73.8136 178.221 73.7378 178.221 73.6588C178.221 73.5798 178.19 73.5039 178.134 73.4475C178.079 73.3911 178.004 73.3586 177.925 73.3571V73.3571Z" fill="#3F3D56"/>
<path d="M177.925 74.4896H173.937C173.858 74.4912 173.783 74.5236 173.728 74.5801C173.672 74.6365 173.641 74.7123 173.641 74.7913C173.641 74.8703 173.672 74.9461 173.728 75.0026C173.783 75.059 173.858 75.0914 173.937 75.093H177.925C178.004 75.0914 178.079 75.059 178.134 75.0026C178.19 74.9461 178.221 74.8703 178.221 74.7913C178.221 74.7123 178.19 74.6365 178.134 74.5801C178.079 74.5236 178.004 74.4912 177.925 74.4896V74.4896Z" fill="#3F3D56"/>
<path d="M177.925 75.6206H173.937C173.858 75.6222 173.783 75.6547 173.728 75.7111C173.672 75.7675 173.641 75.8434 173.641 75.9223C173.641 76.0013 173.672 76.0772 173.728 76.1336C173.783 76.19 173.858 76.2225 173.937 76.2241H177.925C178.004 76.2225 178.079 76.19 178.134 76.1336C178.19 76.0772 178.221 76.0013 178.221 75.9223C178.221 75.8434 178.19 75.7675 178.134 75.7111C178.079 75.6547 178.004 75.6222 177.925 75.6206V75.6206Z" fill="#3F3D56"/>
<path d="M152.013 94.4215H143.301C142.646 94.4215 142.116 94.9516 142.116 95.6056V95.6056C142.116 96.2595 142.646 96.7896 143.301 96.7896H152.013C152.667 96.7896 153.198 96.2595 153.198 95.6056V95.6056C153.198 94.9516 152.667 94.4215 152.013 94.4215Z" fill="#00BFA6"/>
<path d="M157.641 99.1577H137.673C137.019 99.1577 136.488 99.6878 136.488 100.342V100.342C136.488 100.996 137.019 101.526 137.673 101.526H157.641C158.295 101.526 158.826 100.996 158.826 100.342C158.826 99.6878 158.295 99.1577 157.641 99.1577Z" fill="#E6E6E6"/>
<path d="M157.641 103.894H137.673C137.019 103.894 136.488 104.424 136.488 105.078C136.488 105.732 137.019 106.262 137.673 106.262H157.641C158.295 106.262 158.826 105.732 158.826 105.078C158.826 104.424 158.295 103.894 157.641 103.894Z" fill="#E6E6E6"/>
<path d="M112.263 149.036H90.4842C89.7141 149.036 88.9754 149.342 88.4309 149.886C87.8863 150.43 87.5803 151.168 87.5803 151.938C87.5803 152.708 87.8863 153.446 88.4309 153.99C88.9754 154.534 89.7141 154.84 90.4842 154.84H98.4699V177.33H104.278V154.84H112.263C113.034 154.84 113.772 154.534 114.317 153.99C114.861 153.446 115.167 152.708 115.167 151.938C115.167 151.168 114.861 150.43 114.317 149.886C113.772 149.342 113.034 149.036 112.263 149.036Z" fill="#3F3D56"/>
<path d="M126.638 189.785H68.3849C62.7375 189.765 57.2861 187.714 53.0264 184.009C48.7667 180.304 45.983 175.191 45.184 169.604L43.122 162.024C38.854 146.317 32.3531 131.304 23.8178 117.442C19.9167 111.111 17.9088 104.982 22.4694 99.0818C22.5082 99.0316 22.5464 98.982 22.5839 98.9332C26.2418 94.1754 44.4483 93.1455 50.3835 92.9451C50.618 92.9371 50.8534 92.9332 51.0896 92.9333H87.3226C87.5591 92.9333 87.7944 92.9372 88.0286 92.9451C91.2281 93.0383 94.3428 93.9954 97.042 95.7147C99.7412 97.4339 101.924 99.8514 103.36 102.71C104.892 105.629 105.604 108.908 105.421 112.199C105.239 115.49 104.168 118.67 102.323 121.402C89.5956 140.508 85.6988 152.488 89.6883 160.247C93.5473 167.751 105.377 171.588 126.916 172.321C132.704 172.517 135.361 177.022 135.379 181.123C135.397 185.118 132.843 189.53 127.193 189.774C127.009 189.781 126.824 189.785 126.638 189.785Z" fill="#3F3D56"/>
<path d="M78.2809 241.476H100.06C100.83 241.476 101.569 241.17 102.113 240.626C102.658 240.082 102.964 239.344 102.964 238.574C102.964 237.804 102.658 237.066 102.113 236.522C101.569 235.978 100.83 235.672 100.06 235.672H92.0744V186.702H86.2666V235.672H78.2809C77.5107 235.672 76.7721 235.978 76.2275 236.522C75.6829 237.066 75.377 237.804 75.377 238.574C75.377 239.344 75.6829 240.082 76.2275 240.626C76.7721 241.17 77.5107 241.476 78.2809 241.476Z" fill="#3F3D56"/>
<path d="M76.5415 94.7509L76.9981 97.5234C77.214 98.8677 77.9962 108.364 77.4167 109.497C77.3657 107.382 73.4239 104.056 70.8698 104.815L66.8616 105.705L64.3739 106.258L62.3491 106.702L56.4654 107.987C56.4551 107.918 56.4477 107.846 56.4374 107.778C56.4235 107.692 56.4096 107.606 56.3921 107.52C56.2826 106.969 56.0828 106.439 55.8007 105.953C55.7709 106.604 55.5784 107.238 55.2408 107.796C55.2316 107.811 55.2236 107.826 55.2168 107.842C55.1123 108.011 54.997 108.173 54.8716 108.327C54.8658 108.331 54.8605 108.336 54.856 108.342C54.856 108.342 53.6471 89.0838 53.7737 88.9061C53.8664 88.7797 53.9598 88.657 54.0575 88.537C54.1545 88.4135 54.2487 88.2943 54.3499 88.1736C54.3629 88.1621 54.3739 88.1486 54.3825 88.1336C54.6661 87.7982 54.9664 87.4773 55.2823 87.1721C55.3752 87.0827 55.4716 86.9927 55.568 86.9026C57.0399 85.5416 58.7986 84.5278 60.7146 83.936C60.9307 83.8696 61.1554 83.8088 61.3836 83.7473C61.609 83.6901 61.8387 83.6358 62.0699 83.5885L62.1481 83.5725C62.2583 83.55 62.3729 83.5302 62.4838 83.5113C62.6232 83.4865 62.7634 83.4652 62.9007 83.4482C64.6833 83.1916 66.4993 83.2936 68.2419 83.7482C68.2455 83.7475 68.2462 83.751 68.2497 83.7503C69.7044 84.1302 71.0869 84.7455 72.3426 85.5718C74.5145 87.0049 75.3599 89.3424 75.9603 91.9669C76.1708 92.8681 76.348 93.8056 76.5415 94.7509Z" fill="#2F2E41"/>
<path d="M97.9932 221.733L101.745 223.77L111.677 210.047L106.139 207.041L97.9932 221.733Z" fill="#FFB6B6"/>
<path d="M99.799 216.844L106.61 218.975L105.526 221.826L110.197 228.601C110.427 228.935 110.545 229.335 110.532 229.741C110.52 230.147 110.378 230.538 110.127 230.858C109.876 231.178 109.529 231.409 109.137 231.518C108.746 231.626 108.329 231.607 107.949 231.463L100.02 228.453L99.7259 225.113L98.1199 227.731L95.1304 226.596L99.799 216.844Z" fill="#2F2E41"/>
<path d="M119.245 160.354C118.646 160.499 118.023 160.512 117.418 160.391C116.814 160.27 116.244 160.018 115.747 159.652C115.251 159.287 114.841 158.817 114.546 158.277C114.251 157.736 114.078 157.137 114.04 156.522L82.0383 145.018L87.9113 139.91L118.285 151.996C119.323 152 120.323 152.384 121.096 153.076C121.869 153.767 122.362 154.718 122.48 155.749C122.598 156.779 122.334 157.817 121.738 158.665C121.142 159.514 120.255 160.115 119.245 160.354V160.354Z" fill="#FFB6B6"/>
<path d="M73.0986 116.516C73.0986 116.516 67.7088 116.635 67.2296 122.784C66.7504 128.933 78.5108 144.143 80.3329 146.651C82.155 149.159 102.394 152.246 102.394 152.246L109.274 147.255C102.045 142.574 95.4472 138.984 91.0195 139.146L73.0986 116.516Z" fill="#00BFA6"/>
<path d="M66.488 143.648L67.8014 149.287C67.8014 149.287 67.8143 154.487 68.7358 155.446C69.6509 156.4 89.7729 154.484 89.7729 154.484C89.7729 154.484 87.6395 146.105 87.6678 139.765L66.488 143.648Z" fill="#FFB6B6"/>
<path d="M108.997 215.78L101.737 211.79C101.599 202.35 107.281 189.575 114.02 176.194C98.9479 178.784 84.7285 179.614 72.4294 176.48C70.4103 175.947 68.682 174.642 67.6182 172.846C66.5543 171.05 66.2403 168.908 66.744 166.883C66.7919 166.684 66.8472 166.487 66.9101 166.293C68.382 161.805 65.0815 158.991 68.1172 154.055C76.1016 151.33 83.6865 150.561 90.6224 152.967L94.9683 162.569L116.509 159.784C117.55 159.659 118.605 159.742 119.613 160.027C120.622 160.312 121.564 160.794 122.385 161.444C123.207 162.095 123.891 162.902 124.399 163.818C124.907 164.734 125.229 165.741 125.345 166.782C125.374 167.016 125.393 167.251 125.402 167.486C121.046 187.891 116.163 206.252 108.997 215.78Z" fill="#2F2E41"/>
<path d="M67.4856 104.68C72.3574 103.684 75.4986 98.9293 74.5018 94.0608C73.5049 89.1924 68.7474 86.0532 63.8756 87.0494C59.0038 88.0456 55.8626 92.7999 56.8594 97.6684C57.8563 102.537 62.6138 105.676 67.4856 104.68Z" fill="#FFB6B6"/>
<path d="M63.5642 107.946L71.8624 107.456C72.2124 107.436 72.56 107.525 72.857 107.711C73.1539 107.897 73.3854 108.171 73.5191 108.495L75.8641 114.176L85.6104 122.226C85.6104 122.226 89.4692 127.133 89.4782 133.471C89.4872 139.808 90.8473 154.477 90.8473 154.477C90.8473 154.477 85.2155 146.555 81.7395 148.662C81.1481 149.021 80.9401 149.754 80.3206 150.124C80.0116 150.309 79.2978 150.129 78.9857 150.314C74.1958 153.156 69.2004 155.932 68.7336 155.445C67.8172 154.49 66.7055 149.606 66.7055 149.606L59.1096 121.716C58.6978 120.248 58.616 118.708 58.8701 117.205C59.1242 115.703 59.708 114.275 60.5794 113.024C61.1101 112.277 61.6661 111.722 62.1828 111.63C63.343 111.383 62.7258 108.785 63.5642 107.946Z" fill="#00BFA6"/>
<path d="M134.154 233.547L137.657 231.114L129.722 216.153L124.552 219.745L134.154 233.547Z" fill="#FFB6B6"/>
<path d="M134.683 223.509L129.194 228.413C120.465 218.693 113.866 205.061 108.273 189.58C93.6212 185.292 82.5714 178.376 72.9251 170.164C69.6526 167.397 67.1995 163.842 69.9904 160.471C70.1209 160.313 70.2572 160.161 70.3992 160.014C73.6945 156.629 82.0513 157.274 86.9458 154.174L97.8795 165.853L97.1917 168.984L117.729 175.936C118.717 176.282 119.627 176.82 120.405 177.519C121.184 178.218 121.817 179.065 122.267 180.01C122.717 180.954 122.976 181.979 123.027 183.024C123.079 184.069 122.924 185.114 122.569 186.099C122.492 186.321 122.406 186.54 122.31 186.756L134.683 223.509Z" fill="#2F2E41"/>
<path d="M132.112 232.561L137.719 228.148L139.461 230.653L147.693 230.628C148.1 230.626 148.496 230.755 148.824 230.995C149.153 231.235 149.396 231.573 149.518 231.96C149.64 232.348 149.635 232.764 149.504 233.149C149.372 233.533 149.121 233.866 148.787 234.098L141.823 238.936L138.899 237.292L140.154 240.095L137.528 241.92L132.112 232.561Z" fill="#2F2E41"/>
<path d="M75.8179 178.234C75.2505 177.993 74.7429 177.631 74.3307 177.173C73.9185 176.716 73.6118 176.173 73.4322 175.584C73.2526 174.995 73.2044 174.373 73.2911 173.763C73.3777 173.154 73.5972 172.57 73.9339 172.054L55.1477 143.724L62.9107 143.134L80.0446 170.959C80.8743 171.581 81.4466 172.487 81.6531 173.503C81.8596 174.519 81.6859 175.576 81.1649 176.472C80.6439 177.369 79.8119 178.044 78.8264 178.369C77.8409 178.693 76.7704 178.645 75.8179 178.234Z" fill="#FFB6B6"/>
<path d="M65.0166 115.53C65.0166 115.53 60.6233 112.407 56.5631 117.053C52.5029 121.698 52.8419 140.916 52.8038 144.015C52.7918 144.986 54.1942 147.08 56.1262 149.499C56.9936 150.585 57.9678 151.736 58.9687 152.881C59.5479 153.543 59.0488 154.922 59.6304 155.565C60.2088 156.206 61.8679 156.111 62.4181 156.705C65.0295 159.526 67.1509 161.673 67.1509 161.673L75.6522 161.777C75.7481 155.462 71.4203 149.825 65.8603 144.376L65.0166 115.53Z" fill="#00BFA6"/>
<path d="M76.9342 91.4938C76.6011 91.6582 76.2779 91.8169 75.9603 91.9669C74.6862 92.5928 73.3695 93.1281 72.0201 93.5687C71.7955 92.9583 71.4529 92.3981 71.0118 91.9199C71.1247 92.5803 71.0672 93.2585 70.8447 93.8905C68.802 94.3961 66.6578 94.3133 64.6602 93.6519C65.9666 96.0691 66.9318 101.163 66.8616 105.705C66.8309 108.107 66.5056 110.355 65.7952 111.97L64.8824 109.194C64.7977 108.203 64.6276 107.221 64.3738 106.258C63.7617 103.559 63.1903 105.364 62.3491 106.702L56.4654 107.987C56.4551 107.918 56.4477 107.846 56.4374 107.778C56.4235 107.692 56.4096 107.606 56.3921 107.52C56.2826 106.969 56.0828 106.439 55.8007 105.953C55.7708 106.604 55.5784 107.238 55.2408 107.797C55.2316 107.811 55.2235 107.826 55.2168 107.842C55.1123 108.011 54.997 108.173 54.8716 108.327C54.8657 108.331 54.8605 108.336 54.8559 108.342C51.0573 108.85 48.3944 89.2738 53.7744 88.9096C53.9308 88.899 53.9605 88.6605 54.0575 88.537C54.1545 88.4135 54.2486 88.2943 54.3499 88.1736C54.3629 88.1621 54.3739 88.1486 54.3825 88.1336C54.67 87.8008 54.9676 87.4808 55.2823 87.1721C55.3751 87.0827 55.4716 86.9927 55.568 86.9026C57.0445 85.5482 58.8021 84.5365 60.7152 83.9396C60.9314 83.8731 61.1553 83.8088 61.3836 83.7473C61.609 83.6902 61.8387 83.6358 62.0698 83.5885L62.1481 83.5725C62.2583 83.55 62.3728 83.5303 62.4838 83.5113C62.6232 83.4865 62.7634 83.4652 62.9007 83.4482C63.4163 83.7079 63.8574 84.0942 64.1828 84.5708L67.9417 83.8022C68.0413 83.7818 68.1416 83.765 68.2426 83.7518L68.2497 83.7503C72.9425 82.9647 75.9599 86.7353 76.9342 91.4938Z" fill="#2F2E41"/>
<path d="M56.4474 88.0329C55.6425 88.6134 54.7958 89.2115 53.8137 89.3553C52.8316 89.4992 51.6818 89.0247 51.41 88.0707C51.0777 86.9042 52.1317 85.8421 53.0791 85.084L56.0831 82.6801C56.6333 82.1926 57.2543 81.7913 57.925 81.4901C58.2618 81.342 58.6277 81.2714 58.9956 81.2837C59.3634 81.296 59.7238 81.3908 60.05 81.5611C60.3729 81.779 60.6346 82.0758 60.8101 82.4234C60.9857 82.7709 61.0693 83.1576 61.053 83.5466C61.0101 84.3262 60.7527 85.0788 60.309 85.7215C59.7513 86.5901 59.0236 87.337 58.1695 87.9172C57.3154 88.4973 56.3527 88.8988 55.3393 89.0974" fill="#2F2E41"/>
<path d="M79.2317 150.487H57.4525C56.6823 150.487 55.9437 150.793 55.3991 151.337C54.8545 151.881 54.5486 152.619 54.5486 153.389C54.5486 154.159 54.8545 154.897 55.3991 155.441C55.9437 155.985 56.6823 156.291 57.4525 156.291H65.4382V178.781H71.246V156.291H79.2317C80.0019 156.291 80.7405 155.985 81.2851 155.441C81.8297 154.897 82.1356 154.159 82.1356 153.389C82.1356 152.619 81.8297 151.881 81.2851 151.337C80.7405 150.793 80.0019 150.487 79.2317 150.487Z" fill="#3F3D56"/>
<path d="M159.693 242.526L0.432174 242.637C0.317764 242.637 0.208155 242.591 0.127371 242.51C0.0465877 242.429 0.0012207 242.32 0.0012207 242.205C0.0012207 242.091 0.0465877 241.981 0.127371 241.9C0.208155 241.819 0.317764 241.774 0.432174 241.773L159.693 241.662C159.807 241.662 159.917 241.708 159.998 241.789C160.079 241.87 160.124 241.979 160.124 242.094C160.124 242.208 160.079 242.318 159.998 242.399C159.917 242.48 159.807 242.525 159.693 242.526Z" fill="#CACACA"/>
<path d="M206.039 194.348L209.585 198.209L226.175 186.381L220.942 180.682L206.039 194.348Z" fill="#A0616A"/>
<path d="M213.377 199.813V199.809L213.018 195.953L212.855 195.877L211.9 195.423L207.395 193.294L207.301 193.192L206.397 192.206L201.391 196.798L208.172 204.184L212.822 209.247L212.978 209.102C213.615 208.519 214.131 207.816 214.496 207.033C214.861 206.25 215.068 205.403 215.105 204.54C215.142 203.677 215.009 202.816 214.712 202.004C214.416 201.193 213.962 200.448 213.377 199.813H213.377Z" fill="#2F2E41"/>
<path d="M187.671 232.866L192.688 234.389L200.955 215.774L193.55 213.526L187.671 232.866Z" fill="#A0616A"/>
<path d="M200.662 237.033C200.257 236.27 199.705 235.595 199.037 235.047C198.369 234.499 197.599 234.089 196.771 233.841L194.495 230.704L194.317 230.718L188.302 231.269L188.168 231.23L186.89 230.841L184.916 237.338L201.094 242.25L201.156 242.043C201.408 241.217 201.494 240.349 201.41 239.489C201.325 238.629 201.071 237.795 200.662 237.033V237.033Z" fill="#2F2E41"/>
<path d="M229.044 135.4C229.044 135.4 261.078 166.308 240.827 175.875H234.568C234.568 175.875 232.687 169.197 228.38 163.565C227.789 162.792 225.573 162.949 224.958 162.195C221.201 157.593 217.129 153.641 214.316 153.798L214.989 175.153L216.078 182.771C216.65 186.709 200.512 221.092 200.512 221.092L190.369 217.108C190.369 217.108 200.937 188.789 201.061 184.706L192.592 139.815L229.044 135.4Z" fill="#2F2E41"/>
<path d="M231.715 136.924C231.552 137.157 231.339 137.35 231.091 137.49C230.683 137.72 230.241 137.885 229.781 137.976C222.568 139.612 199.007 143.004 192.89 141.386C192.139 141.19 191.649 140.914 191.489 140.551C190.977 139.405 191.043 134.563 191.344 128.715C191.398 127.62 192.607 126.434 192.68 125.287C192.731 124.428 191.645 123.619 191.703 122.744C192.103 116.832 192.618 110.807 192.963 106.998C193.181 104.549 193.33 103.019 193.33 103.019L189.609 79.5746L189.783 79.288L189.979 79.1901L201.976 73.2557L202.629 71.587C202.819 71.1066 203.148 70.6939 203.574 70.4023C204.001 70.1107 204.505 69.9535 205.021 69.9511L212.924 69.9184C213.334 69.9162 213.738 70.0118 214.104 70.1973C214.469 70.3827 214.785 70.6528 215.025 70.9849L217.167 73.9485L231.323 83.017L231.269 83.1839L224.626 103.385L224.594 104.959V104.963L224.347 117.623L225.033 119.338L224.26 122.153C224.26 122.153 224.615 125.443 226.521 127.888C228.249 130.108 230.449 132.422 231.443 134.301V134.305C231.995 135.342 232.18 136.242 231.715 136.924Z" fill="#00BFA6"/>
<path d="M242.365 174.039L240.653 176.201C240.653 176.201 224.905 187.211 224.364 188.24L221.876 190.593L215.854 184.161L218.985 180.238C221.491 177.099 224.729 174.622 228.415 173.023V173.023L233.215 168.768L242.365 174.039Z" fill="#2F2E41"/>
<path d="M232.359 143.138L229.491 115.399L228.734 103.983L236.761 102.532C236.761 102.532 236.443 110.695 237.494 115.301C238.532 119.846 237.632 142.529 237.568 143.136C238.157 143.662 238.573 144.355 238.759 145.123C238.946 145.891 238.895 146.698 238.613 147.436C238.331 148.174 237.832 148.81 237.18 149.258C236.529 149.706 235.757 149.947 234.966 149.947C234.176 149.948 233.403 149.708 232.752 149.26C232.1 148.812 231.6 148.178 231.317 147.44C231.035 146.701 230.983 145.895 231.169 145.127C231.355 144.359 231.77 143.665 232.359 143.138V143.138Z" fill="#A0616A"/>
<path d="M240.188 121.147L229.871 123.281L228.969 119.687L227.918 118.573L225.816 107.573L222.802 101.13L223.585 79.0952L231.242 83.1534L231.251 83.1606C232.423 84.431 233.23 86.2492 234.572 88.0736C238.801 93.8226 239.27 107.792 239.142 115.444C239.139 115.57 239.266 115.702 239.418 115.842C240.138 116.502 240.608 117.391 240.748 118.357C240.888 119.324 240.691 120.309 240.188 121.147V121.147Z" fill="#00BFA6"/>
<path d="M185.641 144.226L188.508 116.487L189.265 105.071L181.239 103.62C181.239 103.62 181.557 111.784 180.505 116.389C179.468 120.934 180.368 143.617 180.432 144.224C179.842 144.75 179.427 145.444 179.24 146.212C179.053 146.979 179.104 147.786 179.386 148.524C179.668 149.263 180.168 149.898 180.819 150.346C181.47 150.795 182.242 151.035 183.033 151.035C183.824 151.036 184.596 150.796 185.248 150.348C185.899 149.901 186.399 149.266 186.682 148.528C186.965 147.79 187.016 146.983 186.83 146.215C186.645 145.447 186.23 144.754 185.641 144.226V144.226Z" fill="#A0616A"/>
<path d="M195.199 102.217L192.963 106.998L192.182 108.663L190.081 119.661L189.032 120.775L188.128 124.37L187.703 124.282L180.044 122.697L177.812 122.237C177.309 121.399 177.11 120.413 177.251 119.446C177.391 118.479 177.861 117.59 178.581 116.93C178.734 116.792 178.861 116.658 178.857 116.531C178.73 108.88 179.198 94.9113 183.427 89.1618C184.77 87.3373 185.576 85.5199 186.749 84.2503C186.752 84.2467 186.752 84.2431 186.756 84.2431L189.609 79.5746L189.783 79.288L189.979 79.1901L195.199 102.217Z" fill="#00BFA6"/>
<path d="M208.744 67.6703C214.551 67.6703 219.259 62.9661 219.259 57.1632C219.259 51.3604 214.551 46.6562 208.744 46.6562C202.938 46.6562 198.23 51.3604 198.23 57.1632C198.23 62.9661 202.938 67.6703 208.744 67.6703Z" fill="#A0616A"/>
<path d="M220.564 52.554C220.528 50.762 220.325 48.4695 219.069 46.6413C218.009 45.1033 215.871 43.8844 213.878 44.4938C213.901 44.0956 213.812 43.699 213.622 43.3481C213.433 42.9972 213.149 42.7057 212.804 42.506C212.049 42.0453 211.141 41.9619 210.339 41.8857C208.317 41.6971 206.223 41.5012 204.176 41.8894C201.878 42.3246 199.998 43.5072 199.021 45.1359L198.999 45.1867L198.8 46.1516C198.773 46.281 198.719 46.4031 198.64 46.5095C198.562 46.616 198.462 46.7042 198.346 46.7682C198.23 46.8331 198.101 46.8717 197.969 46.8811C197.837 46.8905 197.704 46.8705 197.58 46.8226C197.445 46.7719 197.298 46.7573 197.155 46.7804C197.013 46.8035 196.878 46.8634 196.766 46.9543C196.653 47.0451 196.566 47.1638 196.514 47.2985C196.461 47.4332 196.444 47.5792 196.466 47.7223L196.52 48.1068L195.943 47.9979C195.798 47.9699 195.648 47.981 195.509 48.0302C195.37 48.0793 195.247 48.1647 195.151 48.2774C195.056 48.3902 194.993 48.5263 194.968 48.6717C194.943 48.817 194.958 48.9664 195.01 49.1043L195.17 49.5432C195.051 49.5448 194.933 49.5703 194.824 49.6183C194.715 49.6663 194.616 49.7358 194.535 49.8225C194.418 49.949 194.345 50.1092 194.325 50.28C194.306 50.4508 194.341 50.6234 194.426 50.7729C195.073 51.8764 195.989 52.7975 197.09 53.45C197.585 53.7479 198.119 53.9762 198.676 54.1283C198.792 54.1609 198.912 54.1899 199.036 54.2153C203.492 55.1752 208.087 55.3128 212.593 54.6216C212.328 55.51 212.226 56.4391 212.292 57.3639C212.437 58.5211 213.116 59.4751 214.023 59.7943C214.229 59.8638 214.44 59.9148 214.655 59.9467C214.861 59.9799 215.063 60.0297 215.261 60.0954C215.553 60.2023 215.812 60.3843 216.011 60.623C216.209 60.8618 216.342 61.1488 216.394 61.4551C216.446 61.7614 216.417 62.076 216.308 62.3672C216.2 62.6584 216.017 62.9158 215.777 63.1134C215.777 63.1134 216.728 63.9005 216.847 63.8606C217.315 63.6543 217.706 63.3067 217.965 62.8667C219.777 60.2622 220.652 56.7944 220.564 52.554Z" fill="#2F2E41"/>
<path d="M85.739 313L78.793 296.9H82.818L88.89 311.16H86.521L92.685 296.9H96.388L89.419 313H85.739ZM104.148 313V310.585L103.918 310.056V305.732C103.918 304.965 103.681 304.367 103.205 303.938C102.745 303.509 102.032 303.294 101.066 303.294C100.407 303.294 99.7553 303.401 99.1113 303.616C98.4827 303.815 97.946 304.091 97.5013 304.444L96.2133 301.937C96.888 301.462 97.7007 301.094 98.6513 300.833C99.602 300.572 100.568 300.442 101.549 300.442C103.435 300.442 104.9 300.887 105.942 301.776C106.985 302.665 107.506 304.053 107.506 305.939V313H104.148ZM100.376 313.184C99.4103 313.184 98.5823 313.023 97.8923 312.701C97.2023 312.364 96.6733 311.911 96.3053 311.344C95.9373 310.777 95.7533 310.14 95.7533 309.435C95.7533 308.699 95.9297 308.055 96.2823 307.503C96.6503 306.951 97.2253 306.522 98.0073 306.215C98.7893 305.893 99.809 305.732 101.066 305.732H104.355V307.825H101.457C100.614 307.825 100.031 307.963 99.7093 308.239C99.4027 308.515 99.2493 308.86 99.2493 309.274C99.2493 309.734 99.4257 310.102 99.7783 310.378C100.146 310.639 100.645 310.769 101.273 310.769C101.871 310.769 102.408 310.631 102.883 310.355C103.359 310.064 103.704 309.642 103.918 309.09L104.47 310.746C104.21 311.543 103.734 312.149 103.044 312.563C102.354 312.977 101.465 313.184 100.376 313.184ZM126.601 300.442C127.582 300.442 128.448 300.641 129.2 301.04C129.966 301.423 130.564 302.021 130.994 302.834C131.438 303.631 131.661 304.659 131.661 305.916V313H128.073V306.468C128.073 305.471 127.866 304.735 127.452 304.26C127.038 303.785 126.455 303.547 125.704 303.547C125.182 303.547 124.715 303.67 124.301 303.915C123.887 304.145 123.565 304.498 123.335 304.973C123.105 305.448 122.99 306.054 122.99 306.79V313H119.402V306.468C119.402 305.471 119.195 304.735 118.781 304.26C118.382 303.785 117.807 303.547 117.056 303.547C116.534 303.547 116.067 303.67 115.653 303.915C115.239 304.145 114.917 304.498 114.687 304.973C114.457 305.448 114.342 306.054 114.342 306.79V313H110.754V300.626H114.181V304.007L113.537 303.018C113.966 302.175 114.572 301.538 115.354 301.109C116.151 300.664 117.056 300.442 118.068 300.442C119.202 300.442 120.191 300.733 121.035 301.316C121.893 301.883 122.461 302.757 122.737 303.938L121.472 303.593C121.886 302.627 122.545 301.86 123.45 301.293C124.37 300.726 125.42 300.442 126.601 300.442ZM140.855 313.184C139.536 313.184 138.363 312.908 137.336 312.356C136.324 311.804 135.519 311.053 134.921 310.102C134.338 309.136 134.047 308.04 134.047 306.813C134.047 305.571 134.338 304.475 134.921 303.524C135.519 302.558 136.324 301.807 137.336 301.27C138.363 300.718 139.536 300.442 140.855 300.442C142.158 300.442 143.323 300.718 144.351 301.27C145.378 301.807 146.183 302.55 146.766 303.501C147.348 304.452 147.64 305.556 147.64 306.813C147.64 308.04 147.348 309.136 146.766 310.102C146.183 311.053 145.378 311.804 144.351 312.356C143.323 312.908 142.158 313.184 140.855 313.184ZM140.855 310.24C141.453 310.24 141.989 310.102 142.465 309.826C142.94 309.55 143.316 309.159 143.592 308.653C143.868 308.132 144.006 307.518 144.006 306.813C144.006 306.092 143.868 305.479 143.592 304.973C143.316 304.467 142.94 304.076 142.465 303.8C141.989 303.524 141.453 303.386 140.855 303.386C140.257 303.386 139.72 303.524 139.245 303.8C138.769 304.076 138.386 304.467 138.095 304.973C137.819 305.479 137.681 306.092 137.681 306.813C137.681 307.518 137.819 308.132 138.095 308.653C138.386 309.159 138.769 309.55 139.245 309.826C139.72 310.102 140.257 310.24 140.855 310.24ZM154.201 313.184C153.143 313.184 152.123 313.061 151.142 312.816C150.176 312.555 149.409 312.233 148.842 311.85L150.038 309.274C150.605 309.627 151.272 309.918 152.039 310.148C152.821 310.363 153.588 310.47 154.339 310.47C155.167 310.47 155.75 310.37 156.087 310.171C156.44 309.972 156.616 309.696 156.616 309.343C156.616 309.052 156.478 308.837 156.202 308.699C155.941 308.546 155.589 308.431 155.144 308.354C154.699 308.277 154.209 308.201 153.672 308.124C153.151 308.047 152.622 307.948 152.085 307.825C151.548 307.687 151.058 307.488 150.613 307.227C150.168 306.966 149.808 306.614 149.532 306.169C149.271 305.724 149.141 305.149 149.141 304.444C149.141 303.662 149.363 302.972 149.808 302.374C150.268 301.776 150.927 301.308 151.786 300.971C152.645 300.618 153.672 300.442 154.868 300.442C155.711 300.442 156.57 300.534 157.444 300.718C158.318 300.902 159.046 301.17 159.629 301.523L158.433 304.076C157.835 303.723 157.229 303.486 156.616 303.363C156.018 303.225 155.435 303.156 154.868 303.156C154.071 303.156 153.488 303.263 153.12 303.478C152.752 303.693 152.568 303.969 152.568 304.306C152.568 304.613 152.698 304.843 152.959 304.996C153.235 305.149 153.595 305.272 154.04 305.364C154.485 305.456 154.968 305.54 155.489 305.617C156.026 305.678 156.562 305.778 157.099 305.916C157.636 306.054 158.119 306.253 158.548 306.514C158.993 306.759 159.353 307.104 159.629 307.549C159.905 307.978 160.043 308.546 160.043 309.251C160.043 310.018 159.813 310.7 159.353 311.298C158.893 311.881 158.226 312.341 157.352 312.678C156.493 313.015 155.443 313.184 154.201 313.184ZM168.77 313V295.934H172.358V313H168.77ZM183.278 313V310.585L183.048 310.056V305.732C183.048 304.965 182.811 304.367 182.335 303.938C181.875 303.509 181.162 303.294 180.196 303.294C179.537 303.294 178.885 303.401 178.241 303.616C177.613 303.815 177.076 304.091 176.631 304.444L175.343 301.937C176.018 301.462 176.831 301.094 177.781 300.833C178.732 300.572 179.698 300.442 180.679 300.442C182.565 300.442 184.03 300.887 185.072 301.776C186.115 302.665 186.636 304.053 186.636 305.939V313H183.278ZM179.506 313.184C178.54 313.184 177.712 313.023 177.022 312.701C176.332 312.364 175.803 311.911 175.435 311.344C175.067 310.777 174.883 310.14 174.883 309.435C174.883 308.699 175.06 308.055 175.412 307.503C175.78 306.951 176.355 306.522 177.137 306.215C177.919 305.893 178.939 305.732 180.196 305.732H183.485V307.825H180.587C179.744 307.825 179.161 307.963 178.839 308.239C178.533 308.515 178.379 308.86 178.379 309.274C178.379 309.734 178.556 310.102 178.908 310.378C179.276 310.639 179.775 310.769 180.403 310.769C181.001 310.769 181.538 310.631 182.013 310.355C182.489 310.064 182.834 309.642 183.048 309.09L183.6 310.746C183.34 311.543 182.864 312.149 182.174 312.563C181.484 312.977 180.595 313.184 179.506 313.184ZM178.954 299.039L182.059 295.727H185.923L181.76 299.039H178.954ZM190.137 307.411L189.424 296.9H193.702L192.989 307.411H190.137ZM191.563 313.184C190.919 313.184 190.39 312.977 189.976 312.563C189.562 312.149 189.355 311.658 189.355 311.091C189.355 310.508 189.562 310.025 189.976 309.642C190.39 309.243 190.919 309.044 191.563 309.044C192.222 309.044 192.751 309.243 193.15 309.642C193.564 310.025 193.771 310.508 193.771 311.091C193.771 311.658 193.564 312.149 193.15 312.563C192.751 312.977 192.222 313.184 191.563 313.184Z" fill="#086155"/>
<path d="M31.578 343.144C30.618 343.144 29.724 342.982 28.896 342.658C28.08 342.334 27.372 341.884 26.772 341.308C26.172 340.72 25.704 340.036 25.368 339.256C25.032 338.476 24.864 337.624 24.864 336.7C24.864 335.776 25.032 334.924 25.368 334.144C25.704 333.364 26.172 332.686 26.772 332.11C27.372 331.522 28.08 331.066 28.896 330.742C29.712 330.418 30.606 330.256 31.578 330.256C32.538 330.256 33.42 330.418 34.224 330.742C35.04 331.054 35.748 331.504 36.348 332.092C36.96 332.668 37.428 333.346 37.752 334.126C38.088 334.906 38.256 335.764 38.256 336.7C38.256 337.636 38.088 338.494 37.752 339.274C37.428 340.054 36.96 340.738 36.348 341.326C35.748 341.902 35.04 342.352 34.224 342.676C33.42 342.988 32.538 343.144 31.578 343.144ZM31.578 341.542C32.274 341.542 32.916 341.422 33.504 341.182C34.104 340.942 34.62 340.606 35.052 340.174C35.496 339.73 35.838 339.214 36.078 338.626C36.33 338.038 36.456 337.396 36.456 336.7C36.456 336.004 36.33 335.362 36.078 334.774C35.838 334.186 35.496 333.676 35.052 333.244C34.62 332.8 34.104 332.458 33.504 332.218C32.916 331.978 32.274 331.858 31.578 331.858C30.87 331.858 30.216 331.978 29.616 332.218C29.028 332.458 28.512 332.8 28.068 333.244C27.624 333.676 27.276 334.186 27.024 334.774C26.784 335.362 26.664 336.004 26.664 336.7C26.664 337.396 26.784 338.038 27.024 338.626C27.276 339.214 27.624 339.73 28.068 340.174C28.512 340.606 29.028 340.942 29.616 341.182C30.216 341.422 30.87 341.542 31.578 341.542ZM49.5312 343.108C48.6072 343.108 47.7792 342.904 47.0472 342.496C46.3272 342.088 45.7572 341.518 45.3372 340.786C44.9172 340.054 44.7072 339.202 44.7072 338.23C44.7072 337.258 44.9172 336.412 45.3372 335.692C45.7572 334.96 46.3272 334.39 47.0472 333.982C47.7792 333.574 48.6072 333.37 49.5312 333.37C50.3592 333.37 51.0972 333.55 51.7452 333.91C52.3932 334.27 52.9032 334.81 53.2752 335.53C53.6592 336.25 53.8512 337.15 53.8512 338.23C53.8512 339.31 53.6532 340.21 53.2572 340.93C52.8732 341.65 52.3572 342.196 51.7092 342.568C51.0612 342.928 50.3352 343.108 49.5312 343.108ZM49.6752 341.596C50.2752 341.596 50.8152 341.458 51.2952 341.182C51.7872 340.906 52.1712 340.516 52.4472 340.012C52.7352 339.496 52.8792 338.902 52.8792 338.23C52.8792 337.546 52.7352 336.958 52.4472 336.466C52.1712 335.962 51.7872 335.572 51.2952 335.296C50.8152 335.02 50.2752 334.882 49.6752 334.882C49.0632 334.882 48.5172 335.02 48.0372 335.296C47.5572 335.572 47.1732 335.962 46.8852 336.466C46.5972 336.958 46.4532 337.546 46.4532 338.23C46.4532 338.902 46.5972 339.496 46.8852 340.012C47.1732 340.516 47.5572 340.906 48.0372 341.182C48.5172 341.458 49.0632 341.596 49.6752 341.596ZM52.8612 346.492V340.462L53.0412 338.248L52.9332 336.034V333.46H54.5892V346.492H52.8612ZM61.8727 343.108C61.0567 343.108 60.3367 342.958 59.7127 342.658C59.1007 342.358 58.6207 341.902 58.2727 341.29C57.9367 340.666 57.7687 339.886 57.7687 338.95V333.46H59.4967V338.752C59.4967 339.688 59.7187 340.39 60.1627 340.858C60.6187 341.326 61.2547 341.56 62.0707 341.56C62.6707 341.56 63.1927 341.44 63.6367 341.2C64.0807 340.948 64.4227 340.588 64.6627 340.12C64.9027 339.64 65.0227 339.064 65.0227 338.392V333.46H66.7507V343H65.1127V340.426L65.3827 341.11C65.0707 341.746 64.6027 342.238 63.9787 342.586C63.3547 342.934 62.6527 343.108 61.8727 343.108ZM74.2883 343.108C73.2683 343.108 72.3683 342.898 71.5883 342.478C70.8203 342.058 70.2203 341.482 69.7883 340.75C69.3683 340.018 69.1583 339.178 69.1583 338.23C69.1583 337.282 69.3623 336.442 69.7703 335.71C70.1903 334.978 70.7603 334.408 71.4803 334C72.2123 333.58 73.0343 333.37 73.9463 333.37C74.8703 333.37 75.6863 333.574 76.3943 333.982C77.1023 334.39 77.6543 334.966 78.0503 335.71C78.4583 336.442 78.6623 337.3 78.6623 338.284C78.6623 338.356 78.6563 338.44 78.6443 338.536C78.6443 338.632 78.6383 338.722 78.6263 338.806H70.5083V337.564H77.7263L77.0243 337.996C77.0363 337.384 76.9103 336.838 76.6463 336.358C76.3823 335.878 76.0163 335.506 75.5483 335.242C75.0923 334.966 74.5583 334.828 73.9463 334.828C73.3463 334.828 72.8123 334.966 72.3443 335.242C71.8763 335.506 71.5103 335.884 71.2463 336.376C70.9823 336.856 70.8503 337.408 70.8503 338.032V338.32C70.8503 338.956 70.9943 339.526 71.2823 340.03C71.5823 340.522 71.9963 340.906 72.5243 341.182C73.0523 341.458 73.6583 341.596 74.3423 341.596C74.9063 341.596 75.4163 341.5 75.8723 341.308C76.3403 341.116 76.7483 340.828 77.0963 340.444L78.0503 341.56C77.6183 342.064 77.0783 342.448 76.4303 342.712C75.7943 342.976 75.0803 343.108 74.2883 343.108ZM88.3978 343L84.2218 333.46H86.0218L89.7298 342.1H88.8658L92.6458 333.46H94.3378L90.1618 343H88.3978ZM99.7728 343.108C98.8128 343.108 97.9608 342.898 97.2168 342.478C96.4728 342.058 95.8848 341.482 95.4528 340.75C95.0208 340.006 94.8048 339.166 94.8048 338.23C94.8048 337.282 95.0208 336.442 95.4528 335.71C95.8848 334.978 96.4728 334.408 97.2168 334C97.9608 333.58 98.8128 333.37 99.7728 333.37C100.721 333.37 101.567 333.58 102.311 334C103.067 334.408 103.655 334.978 104.075 335.71C104.507 336.43 104.723 337.27 104.723 338.23C104.723 339.178 104.507 340.018 104.075 340.75C103.655 341.482 103.067 342.058 102.311 342.478C101.567 342.898 100.721 343.108 99.7728 343.108ZM99.7728 341.596C100.385 341.596 100.931 341.458 101.411 341.182C101.903 340.906 102.287 340.516 102.563 340.012C102.839 339.496 102.977 338.902 102.977 338.23C102.977 337.546 102.839 336.958 102.563 336.466C102.287 335.962 101.903 335.572 101.411 335.296C100.931 335.02 100.385 334.882 99.7728 334.882C99.1608 334.882 98.6148 335.02 98.1348 335.296C97.6548 335.572 97.2708 335.962 96.9828 336.466C96.6948 336.958 96.5508 337.546 96.5508 338.23C96.5508 338.902 96.6948 339.496 96.9828 340.012C97.2708 340.516 97.6548 340.906 98.1348 341.182C98.6148 341.458 99.1608 341.596 99.7728 341.596ZM111.271 343.108C110.299 343.108 109.429 342.898 108.661 342.478C107.905 342.058 107.311 341.482 106.879 340.75C106.447 340.018 106.231 339.178 106.231 338.23C106.231 337.282 106.447 336.442 106.879 335.71C107.311 334.978 107.905 334.408 108.661 334C109.429 333.58 110.299 333.37 111.271 333.37C112.135 333.37 112.903 333.544 113.575 333.892C114.259 334.228 114.787 334.732 115.159 335.404L113.845 336.25C113.533 335.782 113.149 335.44 112.693 335.224C112.249 334.996 111.769 334.882 111.253 334.882C110.629 334.882 110.071 335.02 109.579 335.296C109.087 335.572 108.697 335.962 108.409 336.466C108.121 336.958 107.977 337.546 107.977 338.23C107.977 338.914 108.121 339.508 108.409 340.012C108.697 340.516 109.087 340.906 109.579 341.182C110.071 341.458 110.629 341.596 111.253 341.596C111.769 341.596 112.249 341.488 112.693 341.272C113.149 341.044 113.533 340.696 113.845 340.228L115.159 341.056C114.787 341.716 114.259 342.226 113.575 342.586C112.903 342.934 112.135 343.108 111.271 343.108ZM121.503 343.108C120.483 343.108 119.583 342.898 118.803 342.478C118.035 342.058 117.435 341.482 117.003 340.75C116.583 340.018 116.373 339.178 116.373 338.23C116.373 337.282 116.577 336.442 116.985 335.71C117.405 334.978 117.975 334.408 118.695 334C119.427 333.58 120.249 333.37 121.161 333.37C122.085 333.37 122.901 333.574 123.609 333.982C124.317 334.39 124.869 334.966 125.265 335.71C125.673 336.442 125.877 337.3 125.877 338.284C125.877 338.356 125.871 338.44 125.859 338.536C125.859 338.632 125.853 338.722 125.841 338.806H117.723V337.564H124.941L124.239 337.996C124.251 337.384 124.125 336.838 123.861 336.358C123.597 335.878 123.231 335.506 122.763 335.242C122.307 334.966 121.773 334.828 121.161 334.828C120.561 334.828 120.027 334.966 119.559 335.242C119.091 335.506 118.725 335.884 118.461 336.376C118.197 336.856 118.065 337.408 118.065 338.032V338.32C118.065 338.956 118.209 339.526 118.497 340.03C118.797 340.522 119.211 340.906 119.739 341.182C120.267 341.458 120.873 341.596 121.557 341.596C122.121 341.596 122.631 341.5 123.087 341.308C123.555 341.116 123.963 340.828 124.311 340.444L125.265 341.56C124.833 342.064 124.293 342.448 123.645 342.712C123.009 342.976 122.295 343.108 121.503 343.108ZM117.921 332.074L120.315 329.734H121.971L124.365 332.074H122.799L120.423 330.094H121.863L119.487 332.074H117.921ZM137.053 343.108C136.129 343.108 135.301 342.904 134.569 342.496C133.849 342.088 133.279 341.518 132.859 340.786C132.439 340.054 132.229 339.202 132.229 338.23C132.229 337.258 132.439 336.412 132.859 335.692C133.279 334.96 133.849 334.39 134.569 333.982C135.301 333.574 136.129 333.37 137.053 333.37C137.857 333.37 138.583 333.55 139.231 333.91C139.879 334.27 140.395 334.81 140.779 335.53C141.175 336.25 141.373 337.15 141.373 338.23C141.373 339.31 141.181 340.21 140.797 340.93C140.425 341.65 139.915 342.196 139.267 342.568C138.619 342.928 137.881 343.108 137.053 343.108ZM137.197 341.596C137.797 341.596 138.337 341.458 138.817 341.182C139.309 340.906 139.693 340.516 139.969 340.012C140.257 339.496 140.401 338.902 140.401 338.23C140.401 337.546 140.257 336.958 139.969 336.466C139.693 335.962 139.309 335.572 138.817 335.296C138.337 335.02 137.797 334.882 137.197 334.882C136.585 334.882 136.039 335.02 135.559 335.296C135.079 335.572 134.695 335.962 134.407 336.466C134.119 336.958 133.975 337.546 133.975 338.23C133.975 338.902 134.119 339.496 134.407 340.012C134.695 340.516 135.079 340.906 135.559 341.182C136.039 341.458 136.585 341.596 137.197 341.596ZM140.455 343V340.426L140.563 338.212L140.383 335.998V329.644H142.111V343H140.455ZM149.628 343.108C148.608 343.108 147.708 342.898 146.928 342.478C146.16 342.058 145.56 341.482 145.128 340.75C144.708 340.018 144.498 339.178 144.498 338.23C144.498 337.282 144.702 336.442 145.11 335.71C145.53 334.978 146.1 334.408 146.82 334C147.552 333.58 148.374 333.37 149.286 333.37C150.21 333.37 151.026 333.574 151.734 333.982C152.442 334.39 152.994 334.966 153.39 335.71C153.798 336.442 154.002 337.3 154.002 338.284C154.002 338.356 153.996 338.44 153.984 338.536C153.984 338.632 153.978 338.722 153.966 338.806H145.848V337.564H153.066L152.364 337.996C152.376 337.384 152.25 336.838 151.986 336.358C151.722 335.878 151.356 335.506 150.888 335.242C150.432 334.966 149.898 334.828 149.286 334.828C148.686 334.828 148.152 334.966 147.684 335.242C147.216 335.506 146.85 335.884 146.586 336.376C146.322 336.856 146.19 337.408 146.19 338.032V338.32C146.19 338.956 146.334 339.526 146.622 340.03C146.922 340.522 147.336 340.906 147.864 341.182C148.392 341.458 148.998 341.596 149.682 341.596C150.246 341.596 150.756 341.5 151.212 341.308C151.68 341.116 152.088 340.828 152.436 340.444L153.39 341.56C152.958 342.064 152.418 342.448 151.77 342.712C151.134 342.976 150.42 343.108 149.628 343.108ZM159.138 343.108C158.346 343.108 157.59 343 156.87 342.784C156.162 342.568 155.604 342.304 155.196 341.992L155.916 340.624C156.324 340.9 156.828 341.134 157.428 341.326C158.028 341.518 158.64 341.614 159.264 341.614C160.068 341.614 160.644 341.5 160.992 341.272C161.352 341.044 161.532 340.726 161.532 340.318C161.532 340.018 161.424 339.784 161.208 339.616C160.992 339.448 160.704 339.322 160.344 339.238C159.996 339.154 159.606 339.082 159.174 339.022C158.742 338.95 158.31 338.866 157.878 338.77C157.446 338.662 157.05 338.518 156.69 338.338C156.33 338.146 156.042 337.888 155.826 337.564C155.61 337.228 155.502 336.784 155.502 336.232C155.502 335.656 155.664 335.152 155.988 334.72C156.312 334.288 156.768 333.958 157.356 333.73C157.956 333.49 158.664 333.37 159.48 333.37C160.104 333.37 160.734 333.448 161.37 333.604C162.018 333.748 162.546 333.958 162.954 334.234L162.216 335.602C161.784 335.314 161.334 335.116 160.866 335.008C160.398 334.9 159.93 334.846 159.462 334.846C158.706 334.846 158.142 334.972 157.77 335.224C157.398 335.464 157.212 335.776 157.212 336.16C157.212 336.484 157.32 336.736 157.536 336.916C157.764 337.084 158.052 337.216 158.4 337.312C158.76 337.408 159.156 337.492 159.588 337.564C160.02 337.624 160.452 337.708 160.884 337.816C161.316 337.912 161.706 338.05 162.054 338.23C162.414 338.41 162.702 338.662 162.918 338.986C163.146 339.31 163.26 339.742 163.26 340.282C163.26 340.858 163.092 341.356 162.756 341.776C162.42 342.196 161.946 342.526 161.334 342.766C160.722 342.994 159.99 343.108 159.138 343.108ZM169.667 343.108C168.647 343.108 167.747 342.898 166.967 342.478C166.199 342.058 165.599 341.482 165.167 340.75C164.747 340.018 164.537 339.178 164.537 338.23C164.537 337.282 164.741 336.442 165.149 335.71C165.569 334.978 166.139 334.408 166.859 334C167.591 333.58 168.413 333.37 169.325 333.37C170.249 333.37 171.065 333.574 171.773 333.982C172.481 334.39 173.033 334.966 173.429 335.71C173.837 336.442 174.041 337.3 174.041 338.284C174.041 338.356 174.035 338.44 174.023 338.536C174.023 338.632 174.017 338.722 174.005 338.806H165.887V337.564H173.105L172.403 337.996C172.415 337.384 172.289 336.838 172.025 336.358C171.761 335.878 171.395 335.506 170.927 335.242C170.471 334.966 169.937 334.828 169.325 334.828C168.725 334.828 168.191 334.966 167.723 335.242C167.255 335.506 166.889 335.884 166.625 336.376C166.361 336.856 166.229 337.408 166.229 338.032V338.32C166.229 338.956 166.373 339.526 166.661 340.03C166.961 340.522 167.375 340.906 167.903 341.182C168.431 341.458 169.037 341.596 169.721 341.596C170.285 341.596 170.795 341.5 171.251 341.308C171.719 341.116 172.127 340.828 172.475 340.444L173.429 341.56C172.997 342.064 172.457 342.448 171.809 342.712C171.173 342.976 170.459 343.108 169.667 343.108ZM175.217 346.6C174.821 346.6 174.443 346.552 174.083 346.456C173.711 346.36 173.399 346.216 173.147 346.024L173.705 344.692C174.065 344.992 174.533 345.142 175.109 345.142C175.565 345.142 175.913 344.998 176.153 344.71C176.405 344.434 176.531 344.02 176.531 343.468V333.46H178.259V343.432C178.259 344.404 177.995 345.172 177.467 345.736C176.951 346.312 176.201 346.6 175.217 346.6ZM177.395 331.624C177.059 331.624 176.777 331.516 176.549 331.3C176.333 331.084 176.225 330.82 176.225 330.508C176.225 330.184 176.333 329.914 176.549 329.698C176.777 329.482 177.059 329.374 177.395 329.374C177.731 329.374 178.007 329.482 178.223 329.698C178.451 329.902 178.565 330.16 178.565 330.472C178.565 330.796 178.457 331.072 178.241 331.3C178.025 331.516 177.743 331.624 177.395 331.624ZM187.478 343V340.984L187.388 340.606V337.168C187.388 336.436 187.172 335.872 186.74 335.476C186.32 335.068 185.684 334.864 184.832 334.864C184.268 334.864 183.716 334.96 183.176 335.152C182.636 335.332 182.18 335.578 181.808 335.89L181.088 334.594C181.58 334.198 182.168 333.898 182.852 333.694C183.548 333.478 184.274 333.37 185.03 333.37C186.338 333.37 187.346 333.688 188.054 334.324C188.762 334.96 189.116 335.932 189.116 337.24V343H187.478ZM184.346 343.108C183.638 343.108 183.014 342.988 182.474 342.748C181.946 342.508 181.538 342.178 181.25 341.758C180.962 341.326 180.818 340.84 180.818 340.3C180.818 339.784 180.938 339.316 181.178 338.896C181.43 338.476 181.832 338.14 182.384 337.888C182.948 337.636 183.704 337.51 184.652 337.51H187.676V338.752H184.724C183.86 338.752 183.278 338.896 182.978 339.184C182.678 339.472 182.528 339.82 182.528 340.228C182.528 340.696 182.714 341.074 183.086 341.362C183.458 341.638 183.974 341.776 184.634 341.776C185.282 341.776 185.846 341.632 186.326 341.344C186.818 341.056 187.172 340.636 187.388 340.084L187.73 341.272C187.502 341.836 187.1 342.286 186.524 342.622C185.948 342.946 185.222 343.108 184.346 343.108ZM197.4 343V332.614C197.4 331.678 197.67 330.934 198.21 330.382C198.762 329.818 199.542 329.536 200.55 329.536C200.922 329.536 201.276 329.584 201.612 329.68C201.96 329.764 202.254 329.902 202.494 330.094L201.972 331.408C201.792 331.264 201.588 331.156 201.36 331.084C201.132 331 200.892 330.958 200.64 330.958C200.136 330.958 199.752 331.102 199.488 331.39C199.224 331.666 199.092 332.08 199.092 332.632V333.91L199.128 334.702V343H197.4ZM195.78 334.882V333.46H201.864V334.882H195.78ZM209.24 343V340.984L209.15 340.606V337.168C209.15 336.436 208.934 335.872 208.502 335.476C208.082 335.068 207.446 334.864 206.594 334.864C206.03 334.864 205.478 334.96 204.938 335.152C204.398 335.332 203.942 335.578 203.57 335.89L202.85 334.594C203.342 334.198 203.93 333.898 204.614 333.694C205.31 333.478 206.036 333.37 206.792 333.37C208.1 333.37 209.108 333.688 209.816 334.324C210.524 334.96 210.878 335.932 210.878 337.24V343H209.24ZM206.108 343.108C205.4 343.108 204.776 342.988 204.236 342.748C203.708 342.508 203.3 342.178 203.012 341.758C202.724 341.326 202.58 340.84 202.58 340.3C202.58 339.784 202.7 339.316 202.94 338.896C203.192 338.476 203.594 338.14 204.146 337.888C204.71 337.636 205.466 337.51 206.414 337.51H209.438V338.752H206.486C205.622 338.752 205.04 338.896 204.74 339.184C204.44 339.472 204.29 339.82 204.29 340.228C204.29 340.696 204.476 341.074 204.848 341.362C205.22 341.638 205.736 341.776 206.396 341.776C207.044 341.776 207.608 341.632 208.088 341.344C208.58 341.056 208.934 340.636 209.15 340.084L209.492 341.272C209.264 341.836 208.862 342.286 208.286 342.622C207.71 342.946 206.984 343.108 206.108 343.108ZM213.158 343V341.884L219.278 334.288L219.62 334.882H213.266V333.46H221.006V334.594L214.886 342.172L214.49 341.578H221.15V343H213.158ZM227.57 343.108C226.55 343.108 225.65 342.898 224.87 342.478C224.102 342.058 223.502 341.482 223.07 340.75C222.65 340.018 222.44 339.178 222.44 338.23C222.44 337.282 222.644 336.442 223.052 335.71C223.472 334.978 224.042 334.408 224.762 334C225.494 333.58 226.316 333.37 227.228 333.37C228.152 333.37 228.968 333.574 229.676 333.982C230.384 334.39 230.936 334.966 231.332 335.71C231.74 336.442 231.944 337.3 231.944 338.284C231.944 338.356 231.938 338.44 231.926 338.536C231.926 338.632 231.92 338.722 231.908 338.806H223.79V337.564H231.008L230.306 337.996C230.318 337.384 230.192 336.838 229.928 336.358C229.664 335.878 229.298 335.506 228.83 335.242C228.374 334.966 227.84 334.828 227.228 334.828C226.628 334.828 226.094 334.966 225.626 335.242C225.158 335.506 224.792 335.884 224.528 336.376C224.264 336.856 224.132 337.408 224.132 338.032V338.32C224.132 338.956 224.276 339.526 224.564 340.03C224.864 340.522 225.278 340.906 225.806 341.182C226.334 341.458 226.94 341.596 227.624 341.596C228.188 341.596 228.698 341.5 229.154 341.308C229.622 341.116 230.03 340.828 230.378 340.444L231.332 341.56C230.9 342.064 230.36 342.448 229.712 342.712C229.076 342.976 228.362 343.108 227.57 343.108ZM234.343 343V333.46H235.999V336.052L235.837 335.404C236.101 334.744 236.545 334.24 237.169 333.892C237.793 333.544 238.561 333.37 239.473 333.37V335.044C239.401 335.032 239.329 335.026 239.257 335.026C239.197 335.026 239.137 335.026 239.077 335.026C238.153 335.026 237.421 335.302 236.881 335.854C236.341 336.406 236.071 337.204 236.071 338.248V343H234.343ZM244.333 339.022C244.333 338.554 244.411 338.146 244.567 337.798C244.723 337.45 244.915 337.138 245.143 336.862C245.383 336.586 245.641 336.334 245.917 336.106C246.193 335.866 246.451 335.632 246.691 335.404C246.931 335.164 247.123 334.912 247.267 334.648C247.423 334.384 247.501 334.078 247.501 333.73C247.501 333.154 247.273 332.686 246.817 332.326C246.361 331.966 245.731 331.786 244.927 331.786C244.207 331.786 243.583 331.906 243.055 332.146C242.527 332.386 242.077 332.74 241.705 333.208L240.391 332.272C240.895 331.636 241.537 331.144 242.317 330.796C243.097 330.436 244.009 330.256 245.053 330.256C245.917 330.256 246.667 330.388 247.303 330.652C247.939 330.904 248.431 331.27 248.779 331.75C249.139 332.218 249.319 332.788 249.319 333.46C249.319 333.964 249.241 334.396 249.085 334.756C248.929 335.116 248.731 335.434 248.491 335.71C248.251 335.986 247.993 336.244 247.717 336.484C247.453 336.724 247.201 336.964 246.961 337.204C246.721 337.444 246.523 337.708 246.367 337.996C246.211 338.284 246.133 338.626 246.133 339.022H244.333ZM245.251 343.108C244.915 343.108 244.633 342.994 244.405 342.766C244.189 342.538 244.081 342.268 244.081 341.956C244.081 341.62 244.189 341.344 244.405 341.128C244.633 340.912 244.915 340.804 245.251 340.804C245.587 340.804 245.863 340.912 246.079 341.128C246.295 341.344 246.403 341.62 246.403 341.956C246.403 342.268 246.295 342.538 246.079 342.766C245.863 342.994 245.587 343.108 245.251 343.108Z" fill="#086155"/>
</svg>
