<?xml version="1.0" encoding="utf-8"?>
<!-- Generator: Adobe Illustrator 24.1.0, SVG Export Plug-In . SVG Version: 6.00 Build 0)  -->
<svg version="1.1" id="Слой_1" xmlns="http://www.w3.org/2000/svg" xmlns:xlink="http://www.w3.org/1999/xlink" x="0px" y="0px"
	 viewBox="0 0 236 54" style="enable-background:new 0 0 236 54;" xml:space="preserve">
<style type="text/css">
	.st0{fill:none;}
	.st1{fill:url(#SVGID_1_);}
	.st2{fill:#473399;}
	.st3{fill:#FFC024;}
	.st4{fill:#00FFFF;}
	.st5{fill:#FFFFCC;}
	.st6{fill:#FFFFFF;}
	.st7{font-family:'ArialMT';}
	.st8{font-size:40px;}
</style>
<pattern  y="54" width="1920" height="1080" patternUnits="userSpaceOnUse" id="Pattern_1" viewBox="0 -1080 1920 1080" style="overflow:visible;">
	<g>
		<rect y="-1080" class="st0" width="1920" height="1080"/>
		<g>
			
				<image style="overflow:visible;enable-background:new    ;" width="1920" height="1080" id="Captura_de_Tela_2022_02_08_a_s_09_15_43__2__png_1_" xlink:href="2122D2F9FE6A051C.png"  transform="matrix(1 0 0 -1 0 0)">
			</image>
		</g>
	</g>
</pattern>
<g transform="matrix( 0.8290252685546875, 0, 0, 0.8290252685546875, 451.6,-745.35) ">
	<g>
		
			<image style="overflow:visible;enable-background:new    ;" width="2880" height="1800" id="Captura_de_Tela_2022_02_08_a_s_09_08_47_png" xlink:href="2122D2F9FE6A051D.png"  transform="matrix(1 0 0 1 0 -1.717002e-05)">
		</image>
	</g>
</g>
<g transform="matrix( 1, 0, 0, 1, -455.15,-363.9) ">
	<g transform="matrix( 1, 0, 0, 1, 0,0) ">
		<g>
			<g id="Symbol_3_0_Layer0_0_FILL">
				<pattern  id="SVGID_1_" xlink:href="#Pattern_1" patternTransform="matrix(1 0 0 -1 -1941.4 -16430.9805)">
				</pattern>
				<path class="st1" d="M-254.8-514.6l0.1,1029.1h509.5V-514.6H-254.8z"/>
			</g>
		</g>
	</g>
</g>
<g transform="matrix( 0.645782470703125, 0, 0, 0.645782470703125, 47.35,0.35) ">
	<g transform="matrix( 1, 0, 0, 1, 0,0) ">
		<g>
			<g id="Symbol_2_0_Layer0_0_FILL">
				<path class="st2" d="M-12.9-319.1h-7.5v64.5h7.5V-319.1 M-36-294.6c-4.1-4-9.1-6-14.9-6s-10.8,2-14.9,6
					c-4.1,3.9-6.2,9.8-6.2,17.6c0,7.8,2.1,13.7,6.2,17.6c4.1,4,9,6,14.9,6s10.8-2,14.9-6c4.1-4,6.2-9.8,6.2-17.6
					C-29.9-284.8-31.9-290.6-36-294.6 M-60.6-289.5c2.4-3.2,5.7-4.8,9.7-4.8s7.2,1.6,9.7,4.8c2.4,3.2,3.7,7.3,3.7,12.5
					c0,5.2-1.2,9.5-3.7,12.6c-2.4,3.2-5.7,4.8-9.7,4.8s-7.2-1.6-9.7-4.8c-2.4-3.2-3.6-7.4-3.6-12.6C-64.2-282.2-63-286.3-60.6-289.5
					 M-108.5-296.5c-2.8,2.7-4.3,5.8-4.3,9.3c0,5,2.9,8.6,8.8,10.8l11.4,3.5c3.7,1.1,5.6,3.1,5.6,5.8c0,2-1,3.8-2.8,5.3
					c-1.8,1.5-4.3,2.2-7.4,2.2c-3.5,0-5.9-0.6-7.4-1.9c-1.5-1.3-2.2-2.9-2.2-4.8v-0.1h-7.4v0.1c0,2.5,0.7,4.8,2.1,6.7
					c1.4,1.9,3.3,3.5,5.8,4.6s5.5,1.7,9.1,1.7c5.8,0,10.2-1.5,13.2-4.4c3-2.9,4.5-6.4,4.5-10.6c0-1.8-0.3-3.4-0.8-4.8
					c-0.6-1.4-1.6-2.5-2.8-3.5l-2.8-1.6l-12.8-3.9c-2.4-0.7-4.1-1.5-5.2-2.3c-1-0.9-1.5-2-1.5-3.4c0-1.8,0.8-3.4,2.3-4.6
					c1.6-1.2,3.9-1.9,6.8-1.9c2.5,0,4.4,0.4,5.9,1.2c1.5,0.9,2.2,2.1,2.2,3.6v0.1h7.5v-0.1c0-2.8-1.2-5.3-3.5-7.6
					c-2.3-2.3-6.3-3.5-11.8-3.5C-101.4-300.5-105.6-299.2-108.5-296.5 M-198.1-286.4l0.2,0.2l14.6,20.8l-14.2,19.6l27.3,0.1
					l14.7-19.8l-14.7-20.8l14.1-20.4h-27.6L-198.1-286.4 M55.6-296.7c-1.5,1.2-2.9,3-4.2,5.2v-7.9h-7.4v44.6h7.4v-22.1
					c0-6.2,1.4-10.6,4.1-13c2.7-2.5,5.5-3.7,8.3-3.7c2,0,3.9,0.4,5.8,1.3v-7.7c-1.2-0.5-2.5-0.7-4.1-0.7c-1.7,0-3.4,0.3-5.1,1
					C58.7-298.9,57.1-297.9,55.6-296.7 M30.1-294.9c-1.2-1.7-3.1-3.1-5.7-4.1c-2.6-1-5.5-1.5-8.7-1.5c-3.2,0-6.2,0.5-8.9,1.6
					c-2.7,1.1-4.9,2.6-6.5,4.8c-1.6,2.1-2.5,4.1-2.5,6.1v0.6H6v-0.6c0-1.8,0.8-3.4,2.5-4.8c1.7-1.3,4-2,7-2c2.5,0,4.6,0.5,6.4,1.6
					c1.8,1.1,2.7,3,2.7,5.8v5.1l-3.9,0.8c-8.5,1.7-14.6,3.7-18.1,6s-5.3,5.6-5.3,10c0,3.8,1.3,6.8,3.8,9c2.5,2.2,5.4,3.3,8.9,3.3
					c2.1,0,4.2-0.4,6.5-1.3c2.2-0.9,4.9-2.9,8.1-6.2c0,1.7,0.4,3.8,1.1,6.2h7.9c-0.9-2.8-1.3-5.2-1.4-7.3l-0.2-23.3
					C31.9-289.9,31.3-293.2,30.1-294.9 M24.5-272.8c0,2.7-0.5,5.1-1.6,7.1c-1.1,2-2.6,3.7-4.6,4.9c-1.9,1.2-3.9,1.8-5.9,1.8
					c-1.2,0-2.3-0.3-3.5-0.9c-1.2-0.6-2.1-1.3-2.7-2.3c-0.6-1-0.9-2.1-0.9-3.3c0-2.3,1-4.2,3.1-5.9c2-1.7,6.7-3.4,13.9-5.2l2.2-0.5
					V-272.8z"/>
				<path class="st3" d="M-167.1-286.6l0.3,0.4l14.6,20.8l-14.3,19.6l27.4,0.1l14.7-19.8l-14.7-20.8l14.1-20.4h-27.6L-167.1-286.6
					 M210.6-300.5c-5.8,0-10.8,2-14.9,6c-4.1,3.9-6.2,9.8-6.2,17.6c0,7.8,2.1,13.7,6.2,17.6c4.1,4,9.1,6,14.9,6s10.8-2,14.9-6
					c4.1-4,6.1-9.8,6.1-17.6c0-7.8-2.1-13.6-6.1-17.6C221.3-298.5,216.4-300.5,210.6-300.5 M201-289.5c2.4-3.2,5.6-4.8,9.6-4.8
					c4,0,7.2,1.6,9.7,4.8c2.4,3.2,3.6,7.3,3.6,12.5c0,5.2-1.2,9.5-3.6,12.6c-2.5,3.2-5.7,4.8-9.7,4.8c-4,0-7.2-1.6-9.6-4.8
					c-2.5-3.2-3.7-7.4-3.7-12.6C197.3-282.2,198.5-286.3,201-289.5 M151.4-291.6v-7.7H144v44.6h7.4v-22c0-4.2,0.6-7.5,1.8-9.8
					c1.2-2.3,2.8-4.1,4.8-5.3c2-1.3,4-1.9,6.2-1.9c1.8,0,3.5,0.5,5,1.4c1.6,0.9,2.6,2.2,3.2,3.9c0.5,1.6,0.8,4.5,0.8,8.5v25.2h7.4
					v-28.4c0-4.9-0.6-8.4-1.9-10.6c-1.2-2.2-2.9-3.9-5.2-5.1c-2.2-1.1-4.8-1.7-7.6-1.7c-2,0-3.7,0.3-5.3,0.9
					c-1.6,0.6-3.2,1.5-4.6,2.6C154.6-295.8,153-294,151.4-291.6 M132.3-299.3h-7.5v44.6h7.5V-299.3 M132.3-309.2v-7.5h-7.5v7.5
					H132.3 M97.7-299.7c-1.7-0.6-3.5-0.9-5.4-0.9c-5.9,0-10.6,2.2-13.9,6.8c-3.3,4.5-5,10.1-5,16.9c0,4.6,0.8,8.7,2.4,12.4
					c1.6,3.7,3.8,6.4,6.7,8.3c2.8,1.9,6,2.8,9.4,2.8c1.7,0,3.5-0.2,5.3-0.7c1.8-0.5,3.4-1.2,4.9-2.4c1.4-1.1,2.9-3.1,4.5-6v7.8h7.4
					v-64.5h-7.4v27.7c-1.6-2.8-3.1-4.7-4.4-5.8C100.9-298.3,99.4-299.1,97.7-299.7 M84.9-290c2.4-2.9,5.5-4.3,9.2-4.3
					c4,0,7.1,1.6,9.3,4.9c2.2,3.3,3.3,7.4,3.3,12.5c0,3.3-0.5,6.4-1.6,9.2c-1,2.8-2.5,4.9-4.6,6.4c-2.1,1.4-4.3,2.1-6.7,2.1
					c-3.7,0-6.7-1.3-9.1-3.9c-2.3-2.6-3.5-7.3-3.5-14C81.2-282.8,82.4-287.1,84.9-290z"/>
			</g>
		</g>
	</g>
</g>
<g transform="matrix( 1, 0, 0, 1, 0,0) ">
	<g>
		<g id="Layer0_0_FILL">
			<path class="st4" d="M12,11.7L3.8,23.5l0.1,0.1l8.4,12.1L4.1,47l15.8,0.1l8.5-11.4l-8.5-12.1L28,11.7H12z"/>
			<path class="st5" d="M41.2,23.6l8.2-11.8H33.3L25,23.4l0.2,0.2l8.4,12.1L25.3,47l15.9,0.1l8.5-11.4L41.2,23.6z"/>
		</g>
	</g>
</g>
<g transform="matrix( 1, 0, 0, 1, 51.75,2) ">
	<g>
		<defs>
			<rect id="SVGID_2_" x="-2" y="-2" width="190.6" height="54"/>
		</defs>
		<clipPath id="SVGID_3_">
			<use xlink:href="#SVGID_2_"  style="overflow:visible;"/>
		</clipPath>
		<text transform="matrix(1 0 0 1 2 40)" class="st6 st7 st8">solardino</text>
	</g>
</g>
</svg>
