<svg width="53" height="54" viewBox="0 0 53 54" fill="none" xmlns="http://www.w3.org/2000/svg">
<path fill-rule="evenodd" clip-rule="evenodd" d="M44.5839 15.8097H42.6477H39.6341C41.3978 14.681 42.556 12.8253 42.556 10.7269C42.556 7.29324 39.4659 4.5 35.6682 4.5C32.4457 4.5 28.6298 10.1267 26.4998 13.7634C24.3699 10.1273 20.5528 4.5 17.3309 4.5C13.5332 4.5 10.4431 7.29386 10.4431 10.7269C10.4431 12.8253 11.6007 14.681 13.365 15.8097H10.6478H8.41642C6.21118 15.8097 4.4165 17.6376 4.4165 19.8839V26.3435C4.4165 27.9437 5.32872 29.3267 6.64907 29.9925V44.7755C6.64907 47.023 8.44314 48.8509 10.6478 48.8509H42.6471C44.8529 48.8509 46.647 47.023 46.647 44.7755V29.8285C47.8052 29.1144 48.5832 27.8224 48.5832 26.3447V19.8845C48.5838 17.6383 46.7897 15.8097 44.5839 15.8097ZM8.41642 26.7055C8.22025 26.7055 8.06052 26.5433 8.06052 26.3441V19.8839C8.06052 19.6846 8.22025 19.5225 8.41642 19.5225H24.6772V26.7048L8.41642 26.7055ZM44.5839 19.5225H28.3218V26.7048H44.5839C44.78 26.7048 44.9398 26.5427 44.9398 26.3435V19.8839C44.9398 19.6846 44.78 19.5225 44.5839 19.5225ZM35.6676 8.21277C37.4258 8.21277 38.9114 9.36435 38.9114 10.7269C38.9114 12.0895 37.4258 13.2411 35.6676 13.2411H31.1672C33.0105 10.5289 34.9041 8.37366 35.6676 8.21277ZM21.8312 13.2423C19.9856 10.5295 18.0822 8.37304 17.2805 8.20968C15.5727 8.21277 14.0871 9.36558 14.0871 10.7282C14.0871 12.0908 15.5727 13.2423 17.3309 13.2423H21.8312ZM10.2931 44.7767V30.4182H24.6778V45.1387H10.6478C10.4522 45.1394 10.2931 44.9766 10.2931 44.7767ZM28.3218 45.1394H42.6477C42.8438 45.1394 43.0036 44.9766 43.0036 44.7761V30.4182H28.3218V45.1394Z" fill="#F2F2F2"/>
</svg>
