<svg width="76" height="55" viewBox="0 0 76 55" fill="none" xmlns="http://www.w3.org/2000/svg">
<path fill-rule="evenodd" clip-rule="evenodd" d="M65.7912 23.0733C65.71 22.7851 65.6665 22.481 65.6665 22.1668C65.6665 20.3259 67.1589 18.8335 68.9998 18.8335C70.8408 18.8335 72.3332 20.3259 72.3332 22.1668C72.3332 24.0078 70.8408 25.5002 68.9998 25.5002C68.0736 25.5002 67.2356 25.1224 66.6316 24.5126L62.2085 27.0938C62.2897 27.382 62.3332 27.686 62.3332 28.0002C62.3332 28.3142 62.2898 28.6181 62.2086 28.9061L66.6343 31.4851C67.2382 30.8768 68.075 30.5002 68.9998 30.5002C70.8408 30.5002 72.3332 31.9926 72.3332 33.8335C72.3332 35.6745 70.8408 37.1669 68.9998 37.1669C67.1589 37.1669 65.6665 35.6745 65.6665 33.8335C65.6665 33.518 65.7104 33.2127 65.7923 32.9234L61.3685 30.3456C60.7644 30.9556 59.9262 31.3335 58.9998 31.3335C57.1589 31.3335 55.6665 29.8411 55.6665 28.0002C55.6665 26.1592 57.1589 24.6669 58.9998 24.6669C59.9261 24.6669 60.764 25.0446 61.3681 25.6545L65.7912 23.0733ZM70.6665 22.1668C70.6665 23.0873 69.9203 23.8335 68.9998 23.8335C68.0794 23.8335 67.3332 23.0873 67.3332 22.1668C67.3332 21.2464 68.0794 20.5002 68.9998 20.5002C69.9203 20.5002 70.6665 21.2464 70.6665 22.1668ZM60.6665 28.0002C60.6665 28.9206 59.9203 29.6668 58.9998 29.6668C58.0794 29.6668 57.3332 28.9206 57.3332 28.0002C57.3332 27.0797 58.0794 26.3335 58.9998 26.3335C59.9203 26.3335 60.6665 27.0797 60.6665 28.0002ZM68.9998 35.5002C69.9203 35.5002 70.6665 34.754 70.6665 33.8335C70.6665 32.913 69.9203 32.1668 68.9998 32.1668C68.0794 32.1668 67.3332 32.913 67.3332 33.8335C67.3332 34.754 68.0794 35.5002 68.9998 35.5002Z" fill="#F2F2F2"/>
<path fill-rule="evenodd" clip-rule="evenodd" d="M17.0671 14.1321H48.5071C49.7124 14.1321 50.6163 15.2349 50.3797 16.4168L47.1719 32.4364C46.6313 35.1585 44.2174 37.1016 41.4793 37.0488L21.3098 37.0487C18.415 37.0733 15.9568 34.9346 15.5808 32.0659L12.6778 10.0644C12.5533 9.11488 11.7448 8.40439 10.7901 8.40294H6.49322C5.43851 8.40294 4.5835 7.54793 4.5835 6.49322C4.5835 5.43851 5.43851 4.5835 6.49322 4.5835L10.793 4.5835C13.6659 4.58785 16.0914 6.71932 16.4647 9.56632L17.0671 14.1321ZM14.1321 44.6877C14.1321 47.8518 16.6971 50.4168 19.8613 50.4168C23.0254 50.4168 25.5904 47.8518 25.5904 44.6877C25.5904 41.5235 23.0254 38.9585 19.8613 38.9585C16.6971 38.9585 14.1321 41.5235 14.1321 44.6877ZM21.771 44.6877C21.771 45.7424 20.916 46.5974 19.8613 46.5974C18.8066 46.5974 17.9516 45.7424 17.9516 44.6877C17.9516 43.6329 18.8066 42.7779 19.8613 42.7779C20.916 42.7779 21.771 43.6329 21.771 44.6877ZM42.7779 50.4168C39.6138 50.4168 37.0488 47.8518 37.0488 44.6877C37.0488 41.5235 39.6138 38.9585 42.7779 38.9585C45.9421 38.9585 48.5071 41.5235 48.5071 44.6877C48.5071 47.8518 45.9421 50.4168 42.7779 50.4168ZM44.6877 44.6877C44.6877 45.7424 43.8326 46.5974 42.7779 46.5974C41.7232 46.5974 40.8682 45.7424 40.8682 44.6877C40.8682 43.6329 41.7232 42.7779 42.7779 42.7779C43.8326 42.7779 44.6877 43.6329 44.6877 44.6877ZM21.2936 33.2293C20.3125 33.2376 19.4931 32.5247 19.3676 31.5679L17.571 17.9516H46.1771L43.4262 31.6894C43.2454 32.5997 42.4408 33.2474 41.5159 33.2297L21.2936 33.2293Z" fill="#F2F2F2"/>
</svg>
