<svg width="80" height="40" viewBox="0 0 80 40" fill="none" xmlns="http://www.w3.org/2000/svg">
<path fill-rule="evenodd" clip-rule="evenodd" d="M75.9684 21.1139C75.3987 20.4682 74.57 20.1016 73.7018 20.1113L69.1161 20.1112V17.1946C69.1161 15.0468 67.3495 13.3057 65.1702 13.3057C64.7804 13.3057 64.4271 13.5319 64.2688 13.883L60.5833 22.0557H58.265C56.6306 22.0557 55.3057 23.3615 55.3057 24.9723V31.7779C55.3057 33.3887 56.6306 34.6945 58.265 34.6945L61.2244 34.6946H72.3516C73.8162 34.7109 75.0786 33.6534 75.2999 32.2153L76.6609 23.4669C76.7914 22.6194 76.5382 21.7596 75.9684 21.1139ZM72.3628 32.7502C72.8547 32.7556 73.2755 32.4031 73.3495 31.9222L74.7106 23.1736C74.754 22.8916 74.6696 22.605 74.4797 22.3898C74.2898 22.1745 74.0135 22.0524 73.713 22.0556H68.1296C67.5848 22.0556 67.1431 21.6204 67.1431 21.0834V17.1945C67.1431 16.3268 66.5664 15.5918 65.77 15.3416L62.2109 23.2342V32.7501L72.3628 32.7502ZM60.238 24.0001H58.265C57.7202 24.0001 57.2786 24.4354 57.2786 24.9723V31.7779C57.2786 32.3148 57.7202 32.7501 58.265 32.7501H60.238V24.0001Z" fill="#F2F2F2"/>
<path fill-rule="evenodd" clip-rule="evenodd" d="M17.7236 19.6923C12.2857 19.6923 7.8774 15.284 7.8774 9.84615C7.8774 4.40827 12.2857 0 17.7236 0C23.1614 0 27.5697 4.40827 27.5697 9.84615C27.5697 15.284 23.1614 19.6923 17.7236 19.6923ZM35.4462 37.4156V33.4772C35.4462 28.0393 31.0379 23.631 25.6 23.631H9.84615C4.40827 23.631 0 28.0393 0 33.4772V37.4156C0 38.5032 0.881655 39.3849 1.96923 39.3849C3.05681 39.3849 3.93846 38.5032 3.93846 37.4156V33.4772C3.93846 30.2144 6.58343 27.5695 9.84615 27.5695H25.6C28.8627 27.5695 31.5077 30.2144 31.5077 33.4772V37.4156C31.5077 38.5032 32.3893 39.3849 33.4769 39.3849C34.5645 39.3849 35.4462 38.5032 35.4462 37.4156ZM23.6309 9.84579C23.6309 13.1085 20.9859 15.7535 17.7232 15.7535C14.4605 15.7535 11.8155 13.1085 11.8155 9.84579C11.8155 6.58307 14.4605 3.9381 17.7232 3.9381C20.9859 3.9381 23.6309 6.58307 23.6309 9.84579ZM47.2613 37.4155V33.4771C47.2579 28.9885 44.2213 25.0712 39.8767 23.9494C38.8236 23.6775 37.7496 24.3108 37.4777 25.3638C37.2058 26.4169 37.839 27.4909 38.8921 27.7628C41.4988 28.4359 43.3208 30.7863 43.3228 33.4785V37.4155C43.3228 38.5031 44.2045 39.3847 45.2921 39.3847C46.3796 39.3847 47.2613 38.5031 47.2613 37.4155ZM35.4621 9.85588C35.4621 7.15753 33.6337 4.8021 31.0197 4.13281C29.9661 3.86304 29.3307 2.79026 29.6005 1.73667C29.8702 0.683078 30.943 0.0476596 31.9966 0.317421C36.3533 1.43292 39.4005 5.35863 39.4005 9.85588C39.4005 14.3531 36.3533 18.2789 31.9966 19.3943C30.943 19.6641 29.8702 19.0287 29.6005 17.9751C29.3307 16.9215 29.9661 15.8487 31.0197 15.579C33.6337 14.9097 35.4621 12.5542 35.4621 9.85588Z" fill="#F2F2F2"/>
</svg>
