<svg width="54" height="54" viewBox="0 0 54 54" fill="none" xmlns="http://www.w3.org/2000/svg">
<path fill-rule="evenodd" clip-rule="evenodd" d="M45.579 27.3352C41.9051 31.0091 36.4462 32.1969 31.6247 30.4788L14.2874 47.8149C12.0483 50.0538 8.41819 50.0538 6.17899 47.8146C3.94021 45.5756 3.94035 41.9457 6.1793 39.7069L23.5169 22.3707C21.7993 17.5505 22.9857 12.0913 26.6604 8.41658C30.6631 4.41415 36.7823 3.36349 41.8874 5.80229C43.0761 6.36993 43.3471 7.94592 42.415 8.87793L37.4711 13.8218C36.7242 14.5688 36.7242 15.7775 37.4711 16.5244C38.2167 17.2696 39.4288 17.2695 40.1739 16.5244L45.1176 11.5807C46.0486 10.6494 47.625 10.9188 48.1934 12.1083C50.6322 17.2134 49.5815 23.3327 45.579 27.3352ZM27.495 21.9958C27.844 22.7267 27.6945 23.5981 27.1218 24.1709L8.75607 42.2857C7.93322 43.1035 7.9291 44.4335 8.74688 45.2564L8.76221 45.2716C9.58306 46.0806 10.9043 46.071 11.7133 45.2501L29.8244 26.8736C30.3973 26.3009 31.2689 26.1515 31.9994 26.5006C35.6459 28.2425 40.0169 27.4917 42.8762 24.6324C45.0374 22.4711 45.9941 19.4462 45.5801 16.5233L42.8762 19.2271C40.641 21.4624 37.0035 21.4625 34.7683 19.2271C33.6854 18.1441 33.0889 16.7045 33.0889 15.1731C33.0889 13.6417 33.6854 12.2018 34.7683 11.1191L37.4722 8.41518C34.5493 8.00111 31.5247 8.95759 29.3631 11.1191C26.5038 13.9783 25.7529 18.3494 27.495 21.9958Z" fill="#F2F2F2"/>
</svg>
