<svg width="71" height="49" viewBox="0 0 71 49" fill="none" xmlns="http://www.w3.org/2000/svg">
<path fill-rule="evenodd" clip-rule="evenodd" d="M18.2514 35.8642H18.1037C17.9286 35.8635 17.7651 35.7788 17.6604 35.6095L17.5864 35.4405C17.4932 35.2276 17.5379 34.979 17.6994 34.8127L17.7448 34.767C18.2341 34.2746 18.5092 33.6059 18.5092 32.9086C18.5092 32.2113 18.2341 31.5427 17.7445 31.0499C17.2561 30.5573 16.5925 30.2801 15.9005 30.2801C15.2084 30.2801 14.5448 30.5573 14.0558 31.0506L14.004 31.1028C13.8457 31.2587 13.5989 31.3038 13.3876 31.2098C13.1721 31.1167 13.0376 30.912 13.0367 30.6852L13.0367 30.6098C13.0367 29.1589 11.8694 27.9827 10.4294 27.9827C8.98938 27.9827 7.82203 29.1589 7.82203 30.6098V30.7587C7.82133 30.9351 7.7373 31.0998 7.56924 31.2053L7.40159 31.2799C7.19031 31.3738 6.94355 31.3288 6.77846 31.166L6.73313 31.1203C6.24441 30.6273 5.58078 30.3501 4.88877 30.3501C4.19676 30.3501 3.53313 30.6273 3.04407 31.1206C2.55516 31.6127 2.28006 32.2814 2.28006 32.9787C2.28006 33.6759 2.55516 34.3446 3.04476 34.8374L3.09656 34.8896C3.25131 35.0491 3.29605 35.2977 3.20281 35.5106C3.10216 35.7813 2.89714 35.929 2.60734 35.9342C1.16735 35.9342 0 37.1105 0 38.5614C0 40.0123 1.16735 41.1886 2.60734 41.1886H2.75509C2.97679 41.1895 3.17992 41.325 3.26862 41.5335C3.36558 41.755 3.32084 42.0037 3.15935 42.17L3.11395 42.2157C2.62469 42.7081 2.34959 43.3768 2.34959 44.0741C2.34959 44.7713 2.62469 45.44 3.11429 45.9328C3.60266 46.4254 4.26629 46.7026 4.9583 46.7026C5.65031 46.7026 6.31394 46.4254 6.803 45.9321L6.8548 45.8799C7.01308 45.724 7.25984 45.6789 7.47111 45.7728C7.73974 45.8743 7.88638 46.0808 7.89156 46.3728C7.89156 47.8238 9.05891 49 10.4989 49C11.9389 49 13.1063 47.8238 13.1063 46.3728V46.224C13.1071 46.0006 13.2417 45.7959 13.4486 45.7065C13.6684 45.6088 13.9152 45.6539 14.0803 45.8166L14.1256 45.8624C14.6143 46.3554 15.278 46.6326 15.97 46.6326C16.662 46.6326 17.3256 46.3554 17.8147 45.862C18.3036 45.37 18.5787 44.7013 18.5787 44.004C18.5787 43.3067 18.3036 42.6381 17.814 42.1453L17.7622 42.0931C17.6074 41.9336 17.5627 41.685 17.6597 41.4635C17.7484 41.255 17.9515 41.1194 18.1767 41.1185L18.2514 41.1185C19.6914 41.1185 20.8588 39.9423 20.8588 38.4913C20.8588 37.0404 19.6914 35.8642 18.2514 35.8642ZM5.55616 32.4113L5.50367 32.3584C5.34065 32.194 5.11944 32.1016 4.88877 32.1016C4.6581 32.1016 4.43689 32.194 4.27319 32.3591C4.10999 32.5234 4.01829 32.7463 4.01829 32.9787C4.01829 33.2111 4.10999 33.434 4.27353 33.5986L4.33242 33.658C4.99079 34.3362 5.1732 35.3498 4.81362 36.1665C4.48718 37.0608 3.65134 37.6632 2.68556 37.6857H2.60734C2.12735 37.6857 1.73823 38.0778 1.73823 38.5614C1.73823 39.045 2.12735 39.4371 2.60734 39.4371L2.75856 39.4371C3.67653 39.4408 4.50467 39.9934 4.86258 40.835C5.24273 41.7029 5.06032 42.7166 4.39521 43.4016L4.34272 43.4545C4.17952 43.6188 4.08782 43.8416 4.08782 44.0741C4.08782 44.3065 4.17952 44.5294 4.3434 44.6943C4.50642 44.8588 4.72763 44.9512 4.9583 44.9512C5.18897 44.9512 5.41018 44.8588 5.57354 44.694L5.6325 44.6347C6.30556 43.9713 7.31159 43.7875 8.12204 44.1498C9.00962 44.4787 9.60744 45.3209 9.62979 46.294V46.3728C9.62979 46.8565 10.0189 47.2486 10.4989 47.2486C10.9789 47.2486 11.368 46.8565 11.368 46.3728L11.368 46.2205C11.3717 45.2955 11.9201 44.4611 12.7553 44.1005C13.6167 43.7174 14.6227 43.9012 15.3026 44.5714L15.3551 44.6243C15.5181 44.7887 15.7393 44.8811 15.97 44.8811C16.2007 44.8811 16.4219 44.7887 16.5856 44.6236C16.7488 44.4593 16.8405 44.2364 16.8405 44.004C16.8405 43.7716 16.7488 43.5487 16.5852 43.3841L16.5263 43.3247C15.868 42.6465 15.6856 41.6328 16.0657 40.7649C16.4236 39.9234 17.2518 39.3708 18.1732 39.3671H18.2514C18.7314 39.3671 19.1205 38.975 19.1205 38.4913C19.1205 38.0077 18.7314 37.6156 18.2514 37.6156L18.1002 37.6156C17.1822 37.6119 16.3541 37.0593 15.9925 36.2091L15.9222 36.0439V35.9564C15.6451 35.1342 15.8468 34.2163 16.4636 33.5811L16.516 33.5282C16.6792 33.3639 16.7709 33.141 16.7709 32.9086C16.7709 32.6762 16.6792 32.4533 16.5154 32.2884C16.3523 32.1239 16.1311 32.0315 15.9005 32.0315C15.6698 32.0315 15.4486 32.1239 15.2852 32.2887L15.2263 32.348C14.5532 33.0114 13.5472 33.1952 12.6944 32.8159C11.8506 32.4515 11.3022 31.6171 11.2985 30.6887V30.6098C11.2985 30.1262 10.9094 29.7341 10.4294 29.7341C9.94938 29.7341 9.56026 30.1262 9.56026 30.6098L9.56026 30.7622C9.5566 31.6872 9.00816 32.5216 8.16441 32.886L8.00043 32.9568H7.91353C7.09757 33.236 6.18663 33.0328 5.55616 32.4113ZM6.95292 38.4913C6.95292 40.4259 8.50938 41.9942 10.4294 41.9942C12.3494 41.9942 13.9058 40.4259 13.9058 38.4913C13.9058 36.5567 12.3494 34.9885 10.4294 34.9885C8.50938 34.9885 6.95292 36.5567 6.95292 38.4913ZM12.1676 38.4913C12.1676 39.4586 11.3894 40.2428 10.4294 40.2428C9.46938 40.2428 8.69115 39.4586 8.69115 38.4913C8.69115 37.524 9.46938 36.7399 10.4294 36.7399C11.3894 36.7399 12.1676 37.524 12.1676 38.4913Z" fill="#F2F2F2"/>
<path fill-rule="evenodd" clip-rule="evenodd" d="M40.4138 20.5458C34.7831 20.5458 30.2185 15.9464 30.2185 10.2729C30.2185 4.59933 34.7831 0 40.4138 0C46.0446 0 50.6092 4.59933 50.6092 10.2729C50.6092 15.9464 46.0446 20.5458 40.4138 20.5458ZM58.7655 39.037V34.9278C58.7655 29.2543 54.2009 24.6549 48.5702 24.6549H32.2575C26.6268 24.6549 22.0621 29.2543 22.0621 34.9278V39.037C22.0621 40.1717 22.9751 41.0916 24.1012 41.0916C25.2274 41.0916 26.1403 40.1717 26.1403 39.037V34.9278C26.1403 31.5237 28.8791 28.7641 32.2575 28.7641H48.5702C51.9486 28.7641 54.6874 31.5237 54.6874 34.9278V39.037C54.6874 40.1717 55.6003 41.0916 56.7265 41.0916C57.8526 41.0916 58.7655 40.1717 58.7655 39.037ZM46.5311 10.2729C46.5311 13.677 43.7923 16.4366 40.4138 16.4366C37.0354 16.4366 34.2966 13.677 34.2966 10.2729C34.2966 6.86875 37.0354 4.10916 40.4138 4.10916C43.7923 4.10916 46.5311 6.86875 46.5311 10.2729ZM71 39.037V34.9278C70.9965 30.2447 67.8522 26.1577 63.3535 24.9873C62.2631 24.7036 61.1509 25.3643 60.8694 26.463C60.5878 27.5616 61.2435 28.6823 62.3339 28.9659C65.0331 29.6682 66.9198 32.1204 66.9218 34.9294V39.037C66.9218 40.1717 67.8348 41.0916 68.9609 41.0916C70.0871 41.0916 71 40.1717 71 39.037ZM58.7815 10.2832C58.7815 7.46786 56.8884 5.01035 54.1816 4.31205C53.0907 4.03059 52.4327 2.91131 52.712 1.81206C52.9914 0.712805 54.1022 0.0498476 55.1932 0.331301C59.7044 1.49514 62.8597 5.591 62.8597 10.2832C62.8597 14.9753 59.7044 19.0712 55.1932 20.235C54.1022 20.5165 52.9914 19.8535 52.712 18.7543C52.4327 17.655 53.0907 16.5357 54.1816 16.2543C56.8884 15.556 58.7815 13.0985 58.7815 10.2832Z" fill="#F2F2F2"/>
</svg>
