<svg width="58" height="58" viewBox="0 0 58 58" fill="none" xmlns="http://www.w3.org/2000/svg">
<path fill-rule="evenodd" clip-rule="evenodd" d="M47.7997 14.0056L31.6886 5.95002C29.9951 5.10846 28.0051 5.10846 26.3116 5.95002L10.196 14.0078C8.14731 15.0258 6.84853 17.1202 6.84731 19.4129L6.84731 38.5862C6.83138 40.8689 8.11911 42.9761 10.1703 44.0096L26.287 52.068C27.9882 52.9193 29.9918 52.9193 31.6937 52.0677L47.8042 44.0124C49.8529 42.9944 51.1517 40.9 51.1529 38.6074V19.4139C51.1517 17.1202 49.8529 15.0258 47.7997 14.0056ZM44.6257 16.9217L29.0001 24.7346L13.3745 16.9217L28.1084 9.55479C28.6678 9.2768 29.3303 9.2765 29.8944 9.5561L44.6257 16.9217ZM47.1251 20.1753L31.014 28.2308V47.9044L46.0074 40.4077C46.6918 40.0676 47.1247 39.3694 47.1251 38.6063V20.1753ZM26.9862 28.2308V47.9144L11.9771 40.4099C11.299 40.0682 10.8697 39.3658 10.875 38.6002L10.875 20.1753L26.9862 28.2308Z" fill="#F2F2F2"/>
</svg>
