<svg width="60" height="60" viewBox="0 0 60 60" fill="none" xmlns="http://www.w3.org/2000/svg">
<path fill-rule="evenodd" clip-rule="evenodd" d="M27.9167 7.08333V11.25C27.9167 12.4006 28.8494 13.3333 30 13.3333C31.1506 13.3333 32.0833 12.4006 32.0833 11.25V7.08333C32.0833 5.93274 31.1506 5 30 5C28.8494 5 27.9167 5.93274 27.9167 7.08333ZM17.5 30C17.5 36.9036 23.0964 42.5 30 42.5C36.9036 42.5 42.5 36.9036 42.5 30C42.5 23.0964 36.9036 17.5 30 17.5C23.0964 17.5 17.5 23.0964 17.5 30ZM38.3333 30C38.3333 34.6024 34.6024 38.3333 30 38.3333C25.3976 38.3333 21.6667 34.6024 21.6667 30C21.6667 25.3976 25.3976 21.6667 30 21.6667C34.6024 21.6667 38.3333 25.3976 38.3333 30ZM27.9167 52.9167V48.75C27.9167 47.5994 28.8494 46.6667 30 46.6667C31.1506 46.6667 32.0833 47.5994 32.0833 48.75V52.9167C32.0833 54.0673 31.1506 55 30 55C28.8494 55 27.9167 54.0673 27.9167 52.9167ZM12.3185 15.2648L15.2769 18.2231C16.0905 19.0367 17.4095 19.0367 18.2231 18.2231C19.0367 17.4095 19.0367 16.0905 18.2231 15.2769L15.2648 12.3185C14.4512 11.5049 13.1321 11.5049 12.3185 12.3185C11.5049 13.1321 11.5049 14.4512 12.3185 15.2648ZM44.7352 47.6815L41.7769 44.7231C40.9633 43.9095 40.9633 42.5905 41.7769 41.7769C42.5905 40.9633 43.9095 40.9633 44.7231 41.7769L47.6815 44.7352C48.4951 45.5488 48.4951 46.8679 47.6815 47.6815C46.8679 48.4951 45.5488 48.4951 44.7352 47.6815ZM7.08333 32.0833H11.25C12.4006 32.0833 13.3333 31.1506 13.3333 30C13.3333 28.8494 12.4006 27.9167 11.25 27.9167H7.08333C5.93274 27.9167 5 28.8494 5 30C5 31.1506 5.93274 32.0833 7.08333 32.0833ZM52.9167 32.0833H48.75C47.5994 32.0833 46.6667 31.1506 46.6667 30C46.6667 28.8494 47.5994 27.9167 48.75 27.9167H52.9167C54.0673 27.9167 55 28.8494 55 30C55 31.1506 54.0673 32.0833 52.9167 32.0833ZM15.2648 47.6815L18.2231 44.7231C19.0367 43.9095 19.0367 42.5905 18.2231 41.7769C17.4095 40.9633 16.0905 40.9633 15.2769 41.7769L12.3185 44.7352C11.5049 45.5488 11.5049 46.8679 12.3185 47.6815C13.1321 48.4951 14.4512 48.4951 15.2648 47.6815ZM47.6815 15.2648L44.7231 18.2231C43.9095 19.0367 42.5905 19.0367 41.7769 18.2231C40.9633 17.4095 40.9633 16.0905 41.7769 15.2769L44.7352 12.3185C45.5488 11.5049 46.8679 11.5049 47.6815 12.3185C48.4951 13.1321 48.4951 14.4512 47.6815 15.2648Z" fill="#F2F2F2"/>
</svg>
